<?xml version="1.0" encoding="UTF-8"?>
<svg width="16px" height="22px" viewBox="0 0 16 22" version="1.1" xmlns="http://www.w3.org/2000/svg" xmlns:xlink="http://www.w3.org/1999/xlink">
    <!-- Generator: Sketch 49.3 (51167) - http://www.bohemiancoding.com/sketch -->
    <title>location-01</title>
    <desc>Created with Sketch.</desc>
    <defs></defs>
    <g id="Page-1" stroke="none" stroke-width="1" fill="none" fill-rule="evenodd">
        <g id="Target-desktop-(after-zip-check)" transform="translate(-458.000000, -369.000000)">
            <g id="location-01" transform="translate(459.000000, 370.000000)">
                <ellipse id="innerLocation" fill="#9F9F9F" fill-rule="nonzero" transform="translate(7.330125, 6.367286) rotate(-45.000000) translate(-7.330125, -6.367286) " cx="7.33012461" cy="6.36728577" rx="1.8777293" ry="1.88329282"></ellipse>
                <path d="M0.375549462,6.87408473 C0.375549462,3.10746296 3.47383252,0 7.22932714,0 C9.10707445,0 10.8909344,0.659158809 12.2053575,1.97747643 C13.5197806,3.29579405 14.2708795,5.08493939 14.2708795,6.96825027 C14.2708795,8.0982368 13.9892175,9.13405779 13.5197806,10.0757132 L7.8865387,19.4922676 C7.69876397,19.7747643 7.41710187,19.7747643 7.3232145,19.7747643 C7.22932714,19.7747643 6.94766504,19.7747643 6.75989031,19.4922676 L1.12664839,10.0757132 C0.563324193,9.03989224 0.375549462,8.00407126 0.375549462,6.87408473 Z" id="outerLocation" stroke="#9F9F9F" stroke-width="1.3" ></path>
            </g>
        </g>
    </g>
</svg>