<?xml version="1.0" encoding="UTF-8"?>
<svg width="128px" height="47px" viewBox="0 0 128 47" version="1.1" xmlns="http://www.w3.org/2000/svg" xmlns:xlink="http://www.w3.org/1999/xlink">
    <!-- Generator: Sketch 49.3 (51167) - http://www.bohemiancoding.com/sketch -->
    <title>shipt-logo_CMYK Copy</title>
    <desc>Created with Sketch.</desc>
    <defs></defs>
    <g id="Page-1" stroke="none" stroke-width="1" fill="none" fill-rule="evenodd">
        <g id="shipt-logo_CMYK-Copy">
            <path d="M46.8469649,23.5649236 C46.8469649,36.4325482 36.4158096,46.8653774 23.5475154,46.8653774 C10.6792212,46.8653774 0.247061607,36.4325482 0.247061607,23.5649236 C0.247061607,10.6969641 10.6792212,0.264469742 23.5475154,0.264469742 C36.4158096,0.264469742 46.8469649,10.6969641 46.8469649,23.5649236" id="Fill-1" fill="#6BA744"></path>
            <path d="M103.750141,22.01493 L108.851394,22.01493 L108.851394,19.3066259 L103.750141,19.3066259 L103.750141,22.01493 Z M109.33447,16.3870809 L100.8393,16.3870809 L100.8393,29.9292707 L103.750141,29.9292707 L103.750141,24.9358142 L106.923778,24.9358142 L110.011713,24.8306958 C111.02038,24.5344228 111.774956,23.6071048 111.774956,22.502023 L111.774956,18.8268979 C111.774956,17.4774327 110.677574,16.3870809 109.33447,16.3870809 Z" id="Fill-2" fill="#575754"></path>
            <path d="M65.9135595,16.3870809 L59.8572024,16.3870809 C58.5147674,16.3870809 57.4287676,17.4774327 57.4287676,18.8268979 L57.4287676,22.1525212 C57.4287676,23.4936172 58.5147674,24.5836342 59.8572024,24.5836342 L65.4308185,24.5836342 L65.4308185,26.9655358 L57.4287676,26.9655358 L57.4287676,27.4422508 C57.4287676,28.7893727 58.5147674,29.880394 59.8572024,29.9265926 L65.9135595,29.9265926 C67.2543206,29.880394 68.3547156,28.7893727 68.3547156,27.4422508 L68.3547156,24.1075887 C68.3547156,22.7641494 67.2543206,21.670115 65.9135595,21.670115 L60.3406129,21.670115 L60.3406129,19.3066259 L68.3547156,19.3066259 L68.3547156,18.8268979 C68.3547156,17.4774327 67.2543206,16.3870809 65.9135595,16.3870809" id="Fill-3" fill="#575754"></path>
            <path d="M94.5767232,18.8268979 C94.5767232,17.4774327 93.4766629,16.3870809 92.1335584,16.3870809 L91.6662169,16.3870809 L91.6662169,29.9292707 L94.5827491,29.9292707 L94.5767232,19.3066259 L94.5767232,18.8268979" id="Fill-4" fill="#575754"></path>
            <path d="M124.890647,16.3870809 L116.367356,16.3870809 L116.367356,19.3066259 L120.094706,19.3066259 L120.094706,29.9292707 L123.014251,29.9292707 L123.014251,19.3066259 L127.331468,19.3066259 L127.331468,18.8268979 C127.331468,17.4774327 126.238438,16.3870809 124.890647,16.3870809" id="Fill-5" fill="#575754"></path>
            <path d="M85.3507464,18.8268979 C85.3507464,17.4774327 84.2610641,16.3870809 82.9179596,16.3870809 L82.4429184,16.3870809 L82.4429184,22.0166039 L82.43321,22.01493 L77.3373132,22.01493 L77.3373132,16.3870809 L74.4207811,16.3870809 L74.4207811,29.9292707 L77.3373132,29.9292707 L77.3373132,24.9358142 L82.4429184,24.9358142 L82.4429184,29.9292707 L85.3611244,29.9292707 L85.3507464,19.3066259 L85.3507464,18.8268979" id="Fill-6" fill="#575754"></path>
            <path d="M5.01488194,20.8616411 C8.68230729,21.976766 12.5127665,22.7721839 16.4667565,23.2063829 L30.6413304,23.2063829 C34.5902989,22.7721839 38.4160713,21.9781051 42.0791446,20.8649888 L42.0791446,20.204484 L5.01488194,20.204484 L5.01488194,20.8616411" id="Fill-7" fill="#FFFFFE"></path>
            <path d="M23.5475154,12.8043528 C20.9014789,12.8043528 18.5651063,13.9974796 17.1516997,15.8169644 L29.9423268,15.8169644 C28.5299245,13.9974796 26.1942215,12.8043528 23.5475154,12.8043528" id="Fill-8" fill="#FFFFFE"></path>
            <polyline id="Fill-9" fill="#FFFFFE" points="20.2155314 24.806662 26.7660118 24.806662 28.2336514 23.9177731 18.8607099 23.9177731 20.2155314 24.806662"></polyline>
            <polyline id="Fill-10" fill="#FFFFFE" points="23.5491893 37.461302 24.5277273 27.0582676 22.5669688 27.0582676 23.5491893 37.461302"></polyline>
            <polyline id="Fill-11" fill="#FFFFFE" points="12.0524553 34.9562045 17.6518488 26.1342973 15.9046747 25.2431347 12.0524553 34.9562045"></polyline>
            <polyline id="Fill-12" fill="#FFFFFE" points="29.4428473 26.1342973 35.0419061 34.9562045 31.1900214 25.2431347 29.4428473 26.1342973"></polyline>
            <path d="M35.0171329,18.766639 C34.7175122,18.766639 34.4704505,18.5256033 34.4704505,18.2259825 C34.4704505,17.923014 34.7175122,17.6816435 35.0171329,17.6816435 C35.317758,17.6816435 35.5611372,17.923014 35.5611372,18.2259825 C35.5611372,18.5256033 35.317758,18.766639 35.0171329,18.766639 Z M32.150147,18.766639 C31.850861,18.766639 31.6031299,18.5256033 31.6031299,18.2259825 C31.6031299,17.923014 31.850861,17.6816435 32.150147,17.6816435 C32.4514417,17.6816435 32.694486,17.923014 32.694486,18.2259825 C32.694486,18.5256033 32.4514417,18.766639 32.150147,18.766639 Z M29.281822,18.766639 C28.9832056,18.766639 28.7358092,18.5256033 28.7358092,18.2259825 C28.7358092,17.923014 28.9832056,17.6816435 29.281822,17.6816435 C29.5827819,17.6816435 29.8275001,17.923014 29.8275001,18.2259825 C29.8275001,18.5256033 29.5827819,18.766639 29.281822,18.766639 Z M26.4161752,18.766639 C26.117224,18.766639 25.8688233,18.5256033 25.8688233,18.2259825 C25.8688233,17.923014 26.117224,17.6816435 26.4161752,17.6816435 C26.7178046,17.6816435 26.9601794,17.923014 26.9601794,18.2259825 C26.9601794,18.5256033 26.7178046,18.766639 26.4161752,18.766639 Z M23.5475154,18.766639 C23.248899,18.766639 23.0018374,18.5256033 23.0018374,18.2259825 C23.0018374,17.923014 23.248899,17.6816435 23.5475154,17.6816435 C23.8501492,17.6816435 24.0928587,17.923014 24.0928587,18.2259825 C24.0928587,18.5256033 23.8501492,18.766639 23.5475154,18.766639 Z M20.6791904,18.766639 C20.3785653,18.766639 20.1348514,18.5256033 20.1348514,18.2259825 C20.1348514,17.923014 20.3785653,17.6816435 20.6791904,17.6816435 C20.9784764,17.6816435 21.225538,17.923014 21.225538,18.2259825 C21.225538,18.5256033 20.9784764,18.766639 20.6791904,18.766639 Z M17.8112002,18.766639 C17.5112446,18.766639 17.267196,18.5256033 17.267196,18.2259825 C17.267196,17.923014 17.5112446,17.6816435 17.8112002,17.6816435 C18.1104862,17.6816435 18.3585521,17.923014 18.3585521,18.2259825 C18.3585521,18.5256033 18.1104862,18.766639 17.8112002,18.766639 Z M14.9455534,18.766639 C14.6442587,18.766639 14.4002101,18.5256033 14.4002101,18.2259825 C14.4002101,17.923014 14.6442587,17.6816435 14.9455534,17.6816435 C15.2435003,17.6816435 15.4915662,17.923014 15.4915662,18.2259825 C15.4915662,18.5256033 15.2435003,18.766639 14.9455534,18.766639 Z M12.0775631,18.766639 C11.7766033,18.766639 11.5328894,18.5256033 11.5328894,18.2259825 C11.5328894,17.923014 11.7766033,17.6816435 12.0775631,17.6816435 C12.3768492,17.6816435 12.6242455,17.923014 12.6242455,18.2259825 C12.6242455,18.5256033 12.3768492,18.766639 12.0775631,18.766639 Z M38.3852723,18.0123981 C38.4130583,18.0776786 38.4287926,18.1499893 38.4287926,18.2259825 C38.4287926,18.5256033 38.1847439,18.766639 37.8841188,18.766639 C37.5855024,18.766639 37.3374365,18.5256033 37.3374365,18.2259825 C37.3374365,18.0596009 37.4137644,17.9136404 37.530265,17.8145479 C35.282607,17.3117206 32.9843984,16.9243896 30.6413304,16.6669501 L16.4667565,16.6669501 C14.1200061,16.9247244 11.818115,17.312725 9.56677445,17.8162218 C9.68227073,17.915649 9.75725962,18.06094 9.75725962,18.2259825 C9.75725962,18.5256033 9.50952847,18.766639 9.21124678,18.766639 C8.90928259,18.766639 8.6655687,18.5256033 8.6655687,18.2259825 C8.6655687,18.1509936 8.68063343,18.080022 8.70774995,18.015411 C7.46039013,18.3126884 6.22809504,18.6431082 5.01488194,19.011692 L5.01488194,19.4445519 L42.0791446,19.4445519 L42.0791446,19.008679 C40.8659315,18.6397605 39.6329669,18.3096754 38.3852723,18.0123981 Z" id="Fill-13" fill="#FFFFFE"></path>
        </g>
    </g>
</svg>