<?xml version="1.0" encoding="UTF-8"?>
<svg width="1080px" height="422px" viewBox="0 0 1080 422" version="1.1" xmlns="http://www.w3.org/2000/svg" xmlns:xlink="http://www.w3.org/1999/xlink">
    <!-- Generator: Sketch 49.3 (51167) - http://www.bohemiancoding.com/sketch -->
    <title>Target</title>
    <desc>Created with Sketch.</desc>
    <defs>
        <rect id="path-1" x="0" y="0" width="1080" height="422"></rect>
    </defs>
    <g id="Page-1" stroke="none" stroke-width="1" fill="none" fill-rule="evenodd">
        <g id="Target-desktop-(after-zip-check)" transform="translate(-100.000000, -129.000000)">
            <g id="Target" transform="translate(100.000000, 129.000000)">
                <mask id="mask-2" fill="white">
                    <use xlink:href="#path-1"></use>
                </mask>
                <use id="Mask" fill="#8D0305" xlink:href="#path-1"></use>
                <g id="Group-4" opacity="0.395833333" mask="url(#mask-2)" fill-opacity="0.4">
                    <g transform="translate(5.000000, 6.000000)">
                        <g id="Target" transform="translate(37.000000, 0.000000)">
                            <path d="M38,19 C38,29.4934102 29.4934102,38 19,38 C8.50658975,38 1.27235083e-15,29.4934102 0,19 C-1.23886791e-15,8.50658975 8.50658975,1.94200916e-15 19,0 C24.0391133,-8.03589999e-16 28.8718377,2.00177997 32.4350288,5.56497116 C35.99822,9.12816235 38,13.9608867 38,19 Z M19,6.33333333 C12.0043932,6.33333333 6.33333333,12.0043932 6.33333333,19 C6.33333333,25.9956068 12.0043932,31.6666667 19,31.6666667 C25.9956068,31.6666667 31.6666667,25.9956068 31.6666667,19 C31.6666667,12.0043932 25.9956068,6.33333333 19,6.33333333 Z" id="_Compound_Path_" fill="#CB2026" fill-rule="nonzero"></path>
                            <circle id="_Path_" fill="#CB2026" fill-rule="nonzero" cx="19.2331288" cy="19" r="6.33333333"></circle>
                        </g>
                        <g id="Target-Copy-28" transform="translate(37.000000, 123.000000)">
                            <path d="M38,19 C38,29.4934102 29.4934102,38 19,38 C8.50658975,38 1.27235083e-15,29.4934102 0,19 C-1.23886791e-15,8.50658975 8.50658975,1.94200916e-15 19,0 C24.0391133,-8.03589999e-16 28.8718377,2.00177997 32.4350288,5.56497116 C35.99822,9.12816235 38,13.9608867 38,19 Z M19,6.33333333 C12.0043932,6.33333333 6.33333333,12.0043932 6.33333333,19 C6.33333333,25.9956068 12.0043932,31.6666667 19,31.6666667 C25.9956068,31.6666667 31.6666667,25.9956068 31.6666667,19 C31.6666667,12.0043932 25.9956068,6.33333333 19,6.33333333 Z" id="_Compound_Path_" fill="#CB2026" fill-rule="nonzero"></path>
                            <circle id="_Path_" fill="#CB2026" fill-rule="nonzero" cx="19.2331288" cy="19" r="6.33333333"></circle>
                        </g>
                        <g id="Target-Copy-55" transform="translate(37.000000, 246.000000)">
                            <path d="M38,19 C38,29.4934102 29.4934102,38 19,38 C8.50658975,38 1.27235083e-15,29.4934102 0,19 C-1.23886791e-15,8.50658975 8.50658975,1.94200916e-15 19,0 C24.0391133,-8.03589999e-16 28.8718377,2.00177997 32.4350288,5.56497116 C35.99822,9.12816235 38,13.9608867 38,19 Z M19,6.33333333 C12.0043932,6.33333333 6.33333333,12.0043932 6.33333333,19 C6.33333333,25.9956068 12.0043932,31.6666667 19,31.6666667 C25.9956068,31.6666667 31.6666667,25.9956068 31.6666667,19 C31.6666667,12.0043932 25.9956068,6.33333333 19,6.33333333 Z" id="_Compound_Path_" fill="#CB2026" fill-rule="nonzero"></path>
                            <circle id="_Path_" fill="#CB2026" fill-rule="nonzero" cx="19.2331288" cy="19" r="6.33333333"></circle>
                        </g>
                        <g id="Target-Copy-82" transform="translate(37.000000, 369.000000)">
                            <path d="M38,19 C38,29.4934102 29.4934102,38 19,38 C8.50658975,38 1.27235083e-15,29.4934102 0,19 C-1.23886791e-15,8.50658975 8.50658975,1.94200916e-15 19,0 C24.0391133,-8.03589999e-16 28.8718377,2.00177997 32.4350288,5.56497116 C35.99822,9.12816235 38,13.9608867 38,19 Z M19,6.33333333 C12.0043932,6.33333333 6.33333333,12.0043932 6.33333333,19 C6.33333333,25.9956068 12.0043932,31.6666667 19,31.6666667 C25.9956068,31.6666667 31.6666667,25.9956068 31.6666667,19 C31.6666667,12.0043932 25.9956068,6.33333333 19,6.33333333 Z" id="_Compound_Path_" fill="#CB2026" fill-rule="nonzero"></path>
                            <circle id="_Path_" fill="#CB2026" fill-rule="nonzero" cx="19.2331288" cy="19" r="6.33333333"></circle>
                        </g>
                        <g id="Target-Copy-14" transform="translate(0.000000, 62.000000)">
                            <path d="M38,19 C38,29.4934102 29.4934102,38 19,38 C8.50658975,38 1.27235083e-15,29.4934102 0,19 C-1.23886791e-15,8.50658975 8.50658975,1.94200916e-15 19,0 C24.0391133,-8.03589999e-16 28.8718377,2.00177997 32.4350288,5.56497116 C35.99822,9.12816235 38,13.9608867 38,19 Z M19,6.33333333 C12.0043932,6.33333333 6.33333333,12.0043932 6.33333333,19 C6.33333333,25.9956068 12.0043932,31.6666667 19,31.6666667 C25.9956068,31.6666667 31.6666667,25.9956068 31.6666667,19 C31.6666667,12.0043932 25.9956068,6.33333333 19,6.33333333 Z" id="_Compound_Path_" fill="#CB2026" fill-rule="nonzero"></path>
                            <circle id="_Path_" fill="#CB2026" fill-rule="nonzero" cx="19.2331288" cy="19" r="6.33333333"></circle>
                        </g>
                        <g id="Target-Copy-29" transform="translate(0.000000, 185.000000)">
                            <path d="M38,19 C38,29.4934102 29.4934102,38 19,38 C8.50658975,38 1.27235083e-15,29.4934102 0,19 C-1.23886791e-15,8.50658975 8.50658975,1.94200916e-15 19,0 C24.0391133,-8.03589999e-16 28.8718377,2.00177997 32.4350288,5.56497116 C35.99822,9.12816235 38,13.9608867 38,19 Z M19,6.33333333 C12.0043932,6.33333333 6.33333333,12.0043932 6.33333333,19 C6.33333333,25.9956068 12.0043932,31.6666667 19,31.6666667 C25.9956068,31.6666667 31.6666667,25.9956068 31.6666667,19 C31.6666667,12.0043932 25.9956068,6.33333333 19,6.33333333 Z" id="_Compound_Path_" fill="#CB2026" fill-rule="nonzero"></path>
                            <circle id="_Path_" fill="#CB2026" fill-rule="nonzero" cx="19.2331288" cy="19" r="6.33333333"></circle>
                        </g>
                        <g id="Target-Copy-56" transform="translate(0.000000, 308.000000)">
                            <path d="M38,19 C38,29.4934102 29.4934102,38 19,38 C8.50658975,38 1.27235083e-15,29.4934102 0,19 C-1.23886791e-15,8.50658975 8.50658975,1.94200916e-15 19,0 C24.0391133,-8.03589999e-16 28.8718377,2.00177997 32.4350288,5.56497116 C35.99822,9.12816235 38,13.9608867 38,19 Z M19,6.33333333 C12.0043932,6.33333333 6.33333333,12.0043932 6.33333333,19 C6.33333333,25.9956068 12.0043932,31.6666667 19,31.6666667 C25.9956068,31.6666667 31.6666667,25.9956068 31.6666667,19 C31.6666667,12.0043932 25.9956068,6.33333333 19,6.33333333 Z" id="_Compound_Path_" fill="#CB2026" fill-rule="nonzero"></path>
                            <circle id="_Path_" fill="#CB2026" fill-rule="nonzero" cx="19.2331288" cy="19" r="6.33333333"></circle>
                        </g>
                        <g id="Target-Copy-4" transform="translate(351.000000, 0.000000)">
                            <path d="M38,19 C38,29.4934102 29.4934102,38 19,38 C8.50658975,38 1.27235083e-15,29.4934102 0,19 C-1.23886791e-15,8.50658975 8.50658975,1.94200916e-15 19,0 C24.0391133,-8.03589999e-16 28.8718377,2.00177997 32.4350288,5.56497116 C35.99822,9.12816235 38,13.9608867 38,19 Z M19,6.33333333 C12.0043932,6.33333333 6.33333333,12.0043932 6.33333333,19 C6.33333333,25.9956068 12.0043932,31.6666667 19,31.6666667 C25.9956068,31.6666667 31.6666667,25.9956068 31.6666667,19 C31.6666667,12.0043932 25.9956068,6.33333333 19,6.33333333 Z" id="_Compound_Path_" fill="#CB2026" fill-rule="nonzero"></path>
                            <circle id="_Path_" fill="#CB2026" fill-rule="nonzero" cx="19.2331288" cy="19" r="6.33333333"></circle>
                        </g>
                        <g id="Target-Copy-30" transform="translate(351.000000, 123.000000)">
                            <path d="M38,19 C38,29.4934102 29.4934102,38 19,38 C8.50658975,38 1.27235083e-15,29.4934102 0,19 C-1.23886791e-15,8.50658975 8.50658975,1.94200916e-15 19,0 C24.0391133,-8.03589999e-16 28.8718377,2.00177997 32.4350288,5.56497116 C35.99822,9.12816235 38,13.9608867 38,19 Z M19,6.33333333 C12.0043932,6.33333333 6.33333333,12.0043932 6.33333333,19 C6.33333333,25.9956068 12.0043932,31.6666667 19,31.6666667 C25.9956068,31.6666667 31.6666667,25.9956068 31.6666667,19 C31.6666667,12.0043932 25.9956068,6.33333333 19,6.33333333 Z" id="_Compound_Path_" fill="#CB2026" fill-rule="nonzero"></path>
                            <circle id="_Path_" fill="#CB2026" fill-rule="nonzero" cx="19.2331288" cy="19" r="6.33333333"></circle>
                        </g>
                        <g id="Target-Copy-57" transform="translate(351.000000, 246.000000)">
                            <path d="M38,19 C38,29.4934102 29.4934102,38 19,38 C8.50658975,38 1.27235083e-15,29.4934102 0,19 C-1.23886791e-15,8.50658975 8.50658975,1.94200916e-15 19,0 C24.0391133,-8.03589999e-16 28.8718377,2.00177997 32.4350288,5.56497116 C35.99822,9.12816235 38,13.9608867 38,19 Z M19,6.33333333 C12.0043932,6.33333333 6.33333333,12.0043932 6.33333333,19 C6.33333333,25.9956068 12.0043932,31.6666667 19,31.6666667 C25.9956068,31.6666667 31.6666667,25.9956068 31.6666667,19 C31.6666667,12.0043932 25.9956068,6.33333333 19,6.33333333 Z" id="_Compound_Path_" fill="#CB2026" fill-rule="nonzero"></path>
                            <circle id="_Path_" fill="#CB2026" fill-rule="nonzero" cx="19.2331288" cy="19" r="6.33333333"></circle>
                        </g>
                        <g id="Target-Copy-84" transform="translate(351.000000, 369.000000)">
                            <path d="M38,19 C38,29.4934102 29.4934102,38 19,38 C8.50658975,38 1.27235083e-15,29.4934102 0,19 C-1.23886791e-15,8.50658975 8.50658975,1.94200916e-15 19,0 C24.0391133,-8.03589999e-16 28.8718377,2.00177997 32.4350288,5.56497116 C35.99822,9.12816235 38,13.9608867 38,19 Z M19,6.33333333 C12.0043932,6.33333333 6.33333333,12.0043932 6.33333333,19 C6.33333333,25.9956068 12.0043932,31.6666667 19,31.6666667 C25.9956068,31.6666667 31.6666667,25.9956068 31.6666667,19 C31.6666667,12.0043932 25.9956068,6.33333333 19,6.33333333 Z" id="_Compound_Path_" fill="#CB2026" fill-rule="nonzero"></path>
                            <circle id="_Path_" fill="#CB2026" fill-rule="nonzero" cx="19.2331288" cy="19" r="6.33333333"></circle>
                        </g>
                        <g id="Target-Copy-15" transform="translate(313.000000, 62.000000)">
                            <path d="M38,19 C38,29.4934102 29.4934102,38 19,38 C8.50658975,38 1.27235083e-15,29.4934102 0,19 C-1.23886791e-15,8.50658975 8.50658975,1.94200916e-15 19,0 C24.0391133,-8.03589999e-16 28.8718377,2.00177997 32.4350288,5.56497116 C35.99822,9.12816235 38,13.9608867 38,19 Z M19,6.33333333 C12.0043932,6.33333333 6.33333333,12.0043932 6.33333333,19 C6.33333333,25.9956068 12.0043932,31.6666667 19,31.6666667 C25.9956068,31.6666667 31.6666667,25.9956068 31.6666667,19 C31.6666667,12.0043932 25.9956068,6.33333333 19,6.33333333 Z" id="_Compound_Path_" fill="#CB2026" fill-rule="nonzero"></path>
                            <circle id="_Path_" fill="#CB2026" fill-rule="nonzero" cx="19.2331288" cy="19" r="6.33333333"></circle>
                        </g>
                        <g id="Target-Copy-31" transform="translate(313.000000, 185.000000)">
                            <path d="M38,19 C38,29.4934102 29.4934102,38 19,38 C8.50658975,38 1.27235083e-15,29.4934102 0,19 C-1.23886791e-15,8.50658975 8.50658975,1.94200916e-15 19,0 C24.0391133,-8.03589999e-16 28.8718377,2.00177997 32.4350288,5.56497116 C35.99822,9.12816235 38,13.9608867 38,19 Z M19,6.33333333 C12.0043932,6.33333333 6.33333333,12.0043932 6.33333333,19 C6.33333333,25.9956068 12.0043932,31.6666667 19,31.6666667 C25.9956068,31.6666667 31.6666667,25.9956068 31.6666667,19 C31.6666667,12.0043932 25.9956068,6.33333333 19,6.33333333 Z" id="_Compound_Path_" fill="#CB2026" fill-rule="nonzero"></path>
                            <circle id="_Path_" fill="#CB2026" fill-rule="nonzero" cx="19.2331288" cy="19" r="6.33333333"></circle>
                        </g>
                        <g id="Target-Copy-58" transform="translate(313.000000, 308.000000)">
                            <path d="M38,19 C38,29.4934102 29.4934102,38 19,38 C8.50658975,38 1.27235083e-15,29.4934102 0,19 C-1.23886791e-15,8.50658975 8.50658975,1.94200916e-15 19,0 C24.0391133,-8.03589999e-16 28.8718377,2.00177997 32.4350288,5.56497116 C35.99822,9.12816235 38,13.9608867 38,19 Z M19,6.33333333 C12.0043932,6.33333333 6.33333333,12.0043932 6.33333333,19 C6.33333333,25.9956068 12.0043932,31.6666667 19,31.6666667 C25.9956068,31.6666667 31.6666667,25.9956068 31.6666667,19 C31.6666667,12.0043932 25.9956068,6.33333333 19,6.33333333 Z" id="_Compound_Path_" fill="#CB2026" fill-rule="nonzero"></path>
                            <circle id="_Path_" fill="#CB2026" fill-rule="nonzero" cx="19.2331288" cy="19" r="6.33333333"></circle>
                        </g>
                        <g id="Target-Copy-8" transform="translate(820.000000, 0.000000)">
                            <path d="M38,19 C38,29.4934102 29.4934102,38 19,38 C8.50658975,38 1.27235083e-15,29.4934102 0,19 C-1.23886791e-15,8.50658975 8.50658975,1.94200916e-15 19,0 C24.0391133,-8.03589999e-16 28.8718377,2.00177997 32.4350288,5.56497116 C35.99822,9.12816235 38,13.9608867 38,19 Z M19,6.33333333 C12.0043932,6.33333333 6.33333333,12.0043932 6.33333333,19 C6.33333333,25.9956068 12.0043932,31.6666667 19,31.6666667 C25.9956068,31.6666667 31.6666667,25.9956068 31.6666667,19 C31.6666667,12.0043932 25.9956068,6.33333333 19,6.33333333 Z" id="_Compound_Path_" fill="#CB2026" fill-rule="nonzero"></path>
                            <circle id="_Path_" fill="#CB2026" fill-rule="nonzero" cx="19.2331288" cy="19" r="6.33333333"></circle>
                        </g>
                        <g id="Target-Copy-32" transform="translate(820.000000, 123.000000)">
                            <path d="M38,19 C38,29.4934102 29.4934102,38 19,38 C8.50658975,38 1.27235083e-15,29.4934102 0,19 C-1.23886791e-15,8.50658975 8.50658975,1.94200916e-15 19,0 C24.0391133,-8.03589999e-16 28.8718377,2.00177997 32.4350288,5.56497116 C35.99822,9.12816235 38,13.9608867 38,19 Z M19,6.33333333 C12.0043932,6.33333333 6.33333333,12.0043932 6.33333333,19 C6.33333333,25.9956068 12.0043932,31.6666667 19,31.6666667 C25.9956068,31.6666667 31.6666667,25.9956068 31.6666667,19 C31.6666667,12.0043932 25.9956068,6.33333333 19,6.33333333 Z" id="_Compound_Path_" fill="#CB2026" fill-rule="nonzero"></path>
                            <circle id="_Path_" fill="#CB2026" fill-rule="nonzero" cx="19.2331288" cy="19" r="6.33333333"></circle>
                        </g>
                        <g id="Target-Copy-59" transform="translate(820.000000, 246.000000)">
                            <path d="M38,19 C38,29.4934102 29.4934102,38 19,38 C8.50658975,38 1.27235083e-15,29.4934102 0,19 C-1.23886791e-15,8.50658975 8.50658975,1.94200916e-15 19,0 C24.0391133,-8.03589999e-16 28.8718377,2.00177997 32.4350288,5.56497116 C35.99822,9.12816235 38,13.9608867 38,19 Z M19,6.33333333 C12.0043932,6.33333333 6.33333333,12.0043932 6.33333333,19 C6.33333333,25.9956068 12.0043932,31.6666667 19,31.6666667 C25.9956068,31.6666667 31.6666667,25.9956068 31.6666667,19 C31.6666667,12.0043932 25.9956068,6.33333333 19,6.33333333 Z" id="_Compound_Path_" fill="#CB2026" fill-rule="nonzero"></path>
                            <circle id="_Path_" fill="#CB2026" fill-rule="nonzero" cx="19.2331288" cy="19" r="6.33333333"></circle>
                        </g>
                        <g id="Target-Copy-86" transform="translate(820.000000, 369.000000)">
                            <path d="M38,19 C38,29.4934102 29.4934102,38 19,38 C8.50658975,38 1.27235083e-15,29.4934102 0,19 C-1.23886791e-15,8.50658975 8.50658975,1.94200916e-15 19,0 C24.0391133,-8.03589999e-16 28.8718377,2.00177997 32.4350288,5.56497116 C35.99822,9.12816235 38,13.9608867 38,19 Z M19,6.33333333 C12.0043932,6.33333333 6.33333333,12.0043932 6.33333333,19 C6.33333333,25.9956068 12.0043932,31.6666667 19,31.6666667 C25.9956068,31.6666667 31.6666667,25.9956068 31.6666667,19 C31.6666667,12.0043932 25.9956068,6.33333333 19,6.33333333 Z" id="_Compound_Path_" fill="#CB2026" fill-rule="nonzero"></path>
                            <circle id="_Path_" fill="#CB2026" fill-rule="nonzero" cx="19.2331288" cy="19" r="6.33333333"></circle>
                        </g>
                        <g id="Target-Copy-16" transform="translate(782.000000, 62.000000)">
                            <path d="M38,19 C38,29.4934102 29.4934102,38 19,38 C8.50658975,38 1.27235083e-15,29.4934102 0,19 C-1.23886791e-15,8.50658975 8.50658975,1.94200916e-15 19,0 C24.0391133,-8.03589999e-16 28.8718377,2.00177997 32.4350288,5.56497116 C35.99822,9.12816235 38,13.9608867 38,19 Z M19,6.33333333 C12.0043932,6.33333333 6.33333333,12.0043932 6.33333333,19 C6.33333333,25.9956068 12.0043932,31.6666667 19,31.6666667 C25.9956068,31.6666667 31.6666667,25.9956068 31.6666667,19 C31.6666667,12.0043932 25.9956068,6.33333333 19,6.33333333 Z" id="_Compound_Path_" fill="#CB2026" fill-rule="nonzero"></path>
                            <circle id="_Path_" fill="#CB2026" fill-rule="nonzero" cx="19.2331288" cy="19" r="6.33333333"></circle>
                        </g>
                        <g id="Target-Copy-33" transform="translate(782.000000, 185.000000)">
                            <path d="M38,19 C38,29.4934102 29.4934102,38 19,38 C8.50658975,38 1.27235083e-15,29.4934102 0,19 C-1.23886791e-15,8.50658975 8.50658975,1.94200916e-15 19,0 C24.0391133,-8.03589999e-16 28.8718377,2.00177997 32.4350288,5.56497116 C35.99822,9.12816235 38,13.9608867 38,19 Z M19,6.33333333 C12.0043932,6.33333333 6.33333333,12.0043932 6.33333333,19 C6.33333333,25.9956068 12.0043932,31.6666667 19,31.6666667 C25.9956068,31.6666667 31.6666667,25.9956068 31.6666667,19 C31.6666667,12.0043932 25.9956068,6.33333333 19,6.33333333 Z" id="_Compound_Path_" fill="#CB2026" fill-rule="nonzero"></path>
                            <circle id="_Path_" fill="#CB2026" fill-rule="nonzero" cx="19.2331288" cy="19" r="6.33333333"></circle>
                        </g>
                        <g id="Target-Copy-60" transform="translate(782.000000, 308.000000)">
                            <path d="M38,19 C38,29.4934102 29.4934102,38 19,38 C8.50658975,38 1.27235083e-15,29.4934102 0,19 C-1.23886791e-15,8.50658975 8.50658975,1.94200916e-15 19,0 C24.0391133,-8.03589999e-16 28.8718377,2.00177997 32.4350288,5.56497116 C35.99822,9.12816235 38,13.9608867 38,19 Z M19,6.33333333 C12.0043932,6.33333333 6.33333333,12.0043932 6.33333333,19 C6.33333333,25.9956068 12.0043932,31.6666667 19,31.6666667 C25.9956068,31.6666667 31.6666667,25.9956068 31.6666667,19 C31.6666667,12.0043932 25.9956068,6.33333333 19,6.33333333 Z" id="_Compound_Path_" fill="#CB2026" fill-rule="nonzero"></path>
                            <circle id="_Path_" fill="#CB2026" fill-rule="nonzero" cx="19.2331288" cy="19" r="6.33333333"></circle>
                        </g>
                        <g id="Target-Copy-2" transform="translate(194.000000, 0.000000)">
                            <path d="M38,19 C38,29.4934102 29.4934102,38 19,38 C8.50658975,38 1.27235083e-15,29.4934102 0,19 C-1.23886791e-15,8.50658975 8.50658975,1.94200916e-15 19,0 C24.0391133,-8.03589999e-16 28.8718377,2.00177997 32.4350288,5.56497116 C35.99822,9.12816235 38,13.9608867 38,19 Z M19,6.33333333 C12.0043932,6.33333333 6.33333333,12.0043932 6.33333333,19 C6.33333333,25.9956068 12.0043932,31.6666667 19,31.6666667 C25.9956068,31.6666667 31.6666667,25.9956068 31.6666667,19 C31.6666667,12.0043932 25.9956068,6.33333333 19,6.33333333 Z" id="_Compound_Path_" fill="#CB2026" fill-rule="nonzero"></path>
                            <circle id="_Path_" fill="#CB2026" fill-rule="nonzero" cx="19.2331288" cy="19" r="6.33333333"></circle>
                        </g>
                        <g id="Target-Copy-34" transform="translate(194.000000, 123.000000)">
                            <path d="M38,19 C38,29.4934102 29.4934102,38 19,38 C8.50658975,38 1.27235083e-15,29.4934102 0,19 C-1.23886791e-15,8.50658975 8.50658975,1.94200916e-15 19,0 C24.0391133,-8.03589999e-16 28.8718377,2.00177997 32.4350288,5.56497116 C35.99822,9.12816235 38,13.9608867 38,19 Z M19,6.33333333 C12.0043932,6.33333333 6.33333333,12.0043932 6.33333333,19 C6.33333333,25.9956068 12.0043932,31.6666667 19,31.6666667 C25.9956068,31.6666667 31.6666667,25.9956068 31.6666667,19 C31.6666667,12.0043932 25.9956068,6.33333333 19,6.33333333 Z" id="_Compound_Path_" fill="#CB2026" fill-rule="nonzero"></path>
                            <circle id="_Path_" fill="#CB2026" fill-rule="nonzero" cx="19.2331288" cy="19" r="6.33333333"></circle>
                        </g>
                        <g id="Target-Copy-61" transform="translate(194.000000, 246.000000)">
                            <path d="M38,19 C38,29.4934102 29.4934102,38 19,38 C8.50658975,38 1.27235083e-15,29.4934102 0,19 C-1.23886791e-15,8.50658975 8.50658975,1.94200916e-15 19,0 C24.0391133,-8.03589999e-16 28.8718377,2.00177997 32.4350288,5.56497116 C35.99822,9.12816235 38,13.9608867 38,19 Z M19,6.33333333 C12.0043932,6.33333333 6.33333333,12.0043932 6.33333333,19 C6.33333333,25.9956068 12.0043932,31.6666667 19,31.6666667 C25.9956068,31.6666667 31.6666667,25.9956068 31.6666667,19 C31.6666667,12.0043932 25.9956068,6.33333333 19,6.33333333 Z" id="_Compound_Path_" fill="#CB2026" fill-rule="nonzero"></path>
                            <circle id="_Path_" fill="#CB2026" fill-rule="nonzero" cx="19.2331288" cy="19" r="6.33333333"></circle>
                        </g>
                        <g id="Target-Copy-88" transform="translate(194.000000, 369.000000)">
                            <path d="M38,19 C38,29.4934102 29.4934102,38 19,38 C8.50658975,38 1.27235083e-15,29.4934102 0,19 C-1.23886791e-15,8.50658975 8.50658975,1.94200916e-15 19,0 C24.0391133,-8.03589999e-16 28.8718377,2.00177997 32.4350288,5.56497116 C35.99822,9.12816235 38,13.9608867 38,19 Z M19,6.33333333 C12.0043932,6.33333333 6.33333333,12.0043932 6.33333333,19 C6.33333333,25.9956068 12.0043932,31.6666667 19,31.6666667 C25.9956068,31.6666667 31.6666667,25.9956068 31.6666667,19 C31.6666667,12.0043932 25.9956068,6.33333333 19,6.33333333 Z" id="_Compound_Path_" fill="#CB2026" fill-rule="nonzero"></path>
                            <circle id="_Path_" fill="#CB2026" fill-rule="nonzero" cx="19.2331288" cy="19" r="6.33333333"></circle>
                        </g>
                        <g id="Target-Copy-17" transform="translate(157.000000, 62.000000)">
                            <path d="M38,19 C38,29.4934102 29.4934102,38 19,38 C8.50658975,38 1.27235083e-15,29.4934102 0,19 C-1.23886791e-15,8.50658975 8.50658975,1.94200916e-15 19,0 C24.0391133,-8.03589999e-16 28.8718377,2.00177997 32.4350288,5.56497116 C35.99822,9.12816235 38,13.9608867 38,19 Z M19,6.33333333 C12.0043932,6.33333333 6.33333333,12.0043932 6.33333333,19 C6.33333333,25.9956068 12.0043932,31.6666667 19,31.6666667 C25.9956068,31.6666667 31.6666667,25.9956068 31.6666667,19 C31.6666667,12.0043932 25.9956068,6.33333333 19,6.33333333 Z" id="_Compound_Path_" fill="#CB2026" fill-rule="nonzero"></path>
                            <circle id="_Path_" fill="#CB2026" fill-rule="nonzero" cx="19.2331288" cy="19" r="6.33333333"></circle>
                        </g>
                        <g id="Target-Copy-35" transform="translate(157.000000, 185.000000)">
                            <path d="M38,19 C38,29.4934102 29.4934102,38 19,38 C8.50658975,38 1.27235083e-15,29.4934102 0,19 C-1.23886791e-15,8.50658975 8.50658975,1.94200916e-15 19,0 C24.0391133,-8.03589999e-16 28.8718377,2.00177997 32.4350288,5.56497116 C35.99822,9.12816235 38,13.9608867 38,19 Z M19,6.33333333 C12.0043932,6.33333333 6.33333333,12.0043932 6.33333333,19 C6.33333333,25.9956068 12.0043932,31.6666667 19,31.6666667 C25.9956068,31.6666667 31.6666667,25.9956068 31.6666667,19 C31.6666667,12.0043932 25.9956068,6.33333333 19,6.33333333 Z" id="_Compound_Path_" fill="#CB2026" fill-rule="nonzero"></path>
                            <circle id="_Path_" fill="#CB2026" fill-rule="nonzero" cx="19.2331288" cy="19" r="6.33333333"></circle>
                        </g>
                        <g id="Target-Copy-62" transform="translate(157.000000, 308.000000)">
                            <path d="M38,19 C38,29.4934102 29.4934102,38 19,38 C8.50658975,38 1.27235083e-15,29.4934102 0,19 C-1.23886791e-15,8.50658975 8.50658975,1.94200916e-15 19,0 C24.0391133,-8.03589999e-16 28.8718377,2.00177997 32.4350288,5.56497116 C35.99822,9.12816235 38,13.9608867 38,19 Z M19,6.33333333 C12.0043932,6.33333333 6.33333333,12.0043932 6.33333333,19 C6.33333333,25.9956068 12.0043932,31.6666667 19,31.6666667 C25.9956068,31.6666667 31.6666667,25.9956068 31.6666667,19 C31.6666667,12.0043932 25.9956068,6.33333333 19,6.33333333 Z" id="_Compound_Path_" fill="#CB2026" fill-rule="nonzero"></path>
                            <circle id="_Path_" fill="#CB2026" fill-rule="nonzero" cx="19.2331288" cy="19" r="6.33333333"></circle>
                        </g>
                        <g id="Target-Copy-9" transform="translate(663.000000, 0.000000)">
                            <path d="M38,19 C38,29.4934102 29.4934102,38 19,38 C8.50658975,38 1.27235083e-15,29.4934102 0,19 C-1.23886791e-15,8.50658975 8.50658975,1.94200916e-15 19,0 C24.0391133,-8.03589999e-16 28.8718377,2.00177997 32.4350288,5.56497116 C35.99822,9.12816235 38,13.9608867 38,19 Z M19,6.33333333 C12.0043932,6.33333333 6.33333333,12.0043932 6.33333333,19 C6.33333333,25.9956068 12.0043932,31.6666667 19,31.6666667 C25.9956068,31.6666667 31.6666667,25.9956068 31.6666667,19 C31.6666667,12.0043932 25.9956068,6.33333333 19,6.33333333 Z" id="_Compound_Path_" fill="#CB2026" fill-rule="nonzero"></path>
                            <circle id="_Path_" fill="#CB2026" fill-rule="nonzero" cx="19.2331288" cy="19" r="6.33333333"></circle>
                        </g>
                        <g id="Target-Copy-36" transform="translate(663.000000, 123.000000)">
                            <path d="M38,19 C38,29.4934102 29.4934102,38 19,38 C8.50658975,38 1.27235083e-15,29.4934102 0,19 C-1.23886791e-15,8.50658975 8.50658975,1.94200916e-15 19,0 C24.0391133,-8.03589999e-16 28.8718377,2.00177997 32.4350288,5.56497116 C35.99822,9.12816235 38,13.9608867 38,19 Z M19,6.33333333 C12.0043932,6.33333333 6.33333333,12.0043932 6.33333333,19 C6.33333333,25.9956068 12.0043932,31.6666667 19,31.6666667 C25.9956068,31.6666667 31.6666667,25.9956068 31.6666667,19 C31.6666667,12.0043932 25.9956068,6.33333333 19,6.33333333 Z" id="_Compound_Path_" fill="#CB2026" fill-rule="nonzero"></path>
                            <circle id="_Path_" fill="#CB2026" fill-rule="nonzero" cx="19.2331288" cy="19" r="6.33333333"></circle>
                        </g>
                        <g id="Target-Copy-63" transform="translate(663.000000, 246.000000)">
                            <path d="M38,19 C38,29.4934102 29.4934102,38 19,38 C8.50658975,38 1.27235083e-15,29.4934102 0,19 C-1.23886791e-15,8.50658975 8.50658975,1.94200916e-15 19,0 C24.0391133,-8.03589999e-16 28.8718377,2.00177997 32.4350288,5.56497116 C35.99822,9.12816235 38,13.9608867 38,19 Z M19,6.33333333 C12.0043932,6.33333333 6.33333333,12.0043932 6.33333333,19 C6.33333333,25.9956068 12.0043932,31.6666667 19,31.6666667 C25.9956068,31.6666667 31.6666667,25.9956068 31.6666667,19 C31.6666667,12.0043932 25.9956068,6.33333333 19,6.33333333 Z" id="_Compound_Path_" fill="#CB2026" fill-rule="nonzero"></path>
                            <circle id="_Path_" fill="#CB2026" fill-rule="nonzero" cx="19.2331288" cy="19" r="6.33333333"></circle>
                        </g>
                        <g id="Target-Copy-90" transform="translate(663.000000, 369.000000)">
                            <path d="M38,19 C38,29.4934102 29.4934102,38 19,38 C8.50658975,38 1.27235083e-15,29.4934102 0,19 C-1.23886791e-15,8.50658975 8.50658975,1.94200916e-15 19,0 C24.0391133,-8.03589999e-16 28.8718377,2.00177997 32.4350288,5.56497116 C35.99822,9.12816235 38,13.9608867 38,19 Z M19,6.33333333 C12.0043932,6.33333333 6.33333333,12.0043932 6.33333333,19 C6.33333333,25.9956068 12.0043932,31.6666667 19,31.6666667 C25.9956068,31.6666667 31.6666667,25.9956068 31.6666667,19 C31.6666667,12.0043932 25.9956068,6.33333333 19,6.33333333 Z" id="_Compound_Path_" fill="#CB2026" fill-rule="nonzero"></path>
                            <circle id="_Path_" fill="#CB2026" fill-rule="nonzero" cx="19.2331288" cy="19" r="6.33333333"></circle>
                        </g>
                        <g id="Target-Copy-18" transform="translate(626.000000, 62.000000)">
                            <path d="M38,19 C38,29.4934102 29.4934102,38 19,38 C8.50658975,38 1.27235083e-15,29.4934102 0,19 C-1.23886791e-15,8.50658975 8.50658975,1.94200916e-15 19,0 C24.0391133,-8.03589999e-16 28.8718377,2.00177997 32.4350288,5.56497116 C35.99822,9.12816235 38,13.9608867 38,19 Z M19,6.33333333 C12.0043932,6.33333333 6.33333333,12.0043932 6.33333333,19 C6.33333333,25.9956068 12.0043932,31.6666667 19,31.6666667 C25.9956068,31.6666667 31.6666667,25.9956068 31.6666667,19 C31.6666667,12.0043932 25.9956068,6.33333333 19,6.33333333 Z" id="_Compound_Path_" fill="#CB2026" fill-rule="nonzero"></path>
                            <circle id="_Path_" fill="#CB2026" fill-rule="nonzero" cx="19.2331288" cy="19" r="6.33333333"></circle>
                        </g>
                        <g id="Target-Copy-37" transform="translate(626.000000, 185.000000)">
                            <path d="M38,19 C38,29.4934102 29.4934102,38 19,38 C8.50658975,38 1.27235083e-15,29.4934102 0,19 C-1.23886791e-15,8.50658975 8.50658975,1.94200916e-15 19,0 C24.0391133,-8.03589999e-16 28.8718377,2.00177997 32.4350288,5.56497116 C35.99822,9.12816235 38,13.9608867 38,19 Z M19,6.33333333 C12.0043932,6.33333333 6.33333333,12.0043932 6.33333333,19 C6.33333333,25.9956068 12.0043932,31.6666667 19,31.6666667 C25.9956068,31.6666667 31.6666667,25.9956068 31.6666667,19 C31.6666667,12.0043932 25.9956068,6.33333333 19,6.33333333 Z" id="_Compound_Path_" fill="#CB2026" fill-rule="nonzero"></path>
                            <circle id="_Path_" fill="#CB2026" fill-rule="nonzero" cx="19.2331288" cy="19" r="6.33333333"></circle>
                        </g>
                        <g id="Target-Copy-64" transform="translate(626.000000, 308.000000)">
                            <path d="M38,19 C38,29.4934102 29.4934102,38 19,38 C8.50658975,38 1.27235083e-15,29.4934102 0,19 C-1.23886791e-15,8.50658975 8.50658975,1.94200916e-15 19,0 C24.0391133,-8.03589999e-16 28.8718377,2.00177997 32.4350288,5.56497116 C35.99822,9.12816235 38,13.9608867 38,19 Z M19,6.33333333 C12.0043932,6.33333333 6.33333333,12.0043932 6.33333333,19 C6.33333333,25.9956068 12.0043932,31.6666667 19,31.6666667 C25.9956068,31.6666667 31.6666667,25.9956068 31.6666667,19 C31.6666667,12.0043932 25.9956068,6.33333333 19,6.33333333 Z" id="_Compound_Path_" fill="#CB2026" fill-rule="nonzero"></path>
                            <circle id="_Path_" fill="#CB2026" fill-rule="nonzero" cx="19.2331288" cy="19" r="6.33333333"></circle>
                        </g>
                        <g id="Target-Copy-5" transform="translate(508.000000, 0.000000)">
                            <path d="M38,19 C38,29.4934102 29.4934102,38 19,38 C8.50658975,38 1.27235083e-15,29.4934102 0,19 C-1.23886791e-15,8.50658975 8.50658975,1.94200916e-15 19,0 C24.0391133,-8.03589999e-16 28.8718377,2.00177997 32.4350288,5.56497116 C35.99822,9.12816235 38,13.9608867 38,19 Z M19,6.33333333 C12.0043932,6.33333333 6.33333333,12.0043932 6.33333333,19 C6.33333333,25.9956068 12.0043932,31.6666667 19,31.6666667 C25.9956068,31.6666667 31.6666667,25.9956068 31.6666667,19 C31.6666667,12.0043932 25.9956068,6.33333333 19,6.33333333 Z" id="_Compound_Path_" fill="#CB2026" fill-rule="nonzero"></path>
                            <circle id="_Path_" fill="#CB2026" fill-rule="nonzero" cx="19.2331288" cy="19" r="6.33333333"></circle>
                        </g>
                        <g id="Target-Copy-38" transform="translate(508.000000, 123.000000)">
                            <path d="M38,19 C38,29.4934102 29.4934102,38 19,38 C8.50658975,38 1.27235083e-15,29.4934102 0,19 C-1.23886791e-15,8.50658975 8.50658975,1.94200916e-15 19,0 C24.0391133,-8.03589999e-16 28.8718377,2.00177997 32.4350288,5.56497116 C35.99822,9.12816235 38,13.9608867 38,19 Z M19,6.33333333 C12.0043932,6.33333333 6.33333333,12.0043932 6.33333333,19 C6.33333333,25.9956068 12.0043932,31.6666667 19,31.6666667 C25.9956068,31.6666667 31.6666667,25.9956068 31.6666667,19 C31.6666667,12.0043932 25.9956068,6.33333333 19,6.33333333 Z" id="_Compound_Path_" fill="#CB2026" fill-rule="nonzero"></path>
                            <circle id="_Path_" fill="#CB2026" fill-rule="nonzero" cx="19.2331288" cy="19" r="6.33333333"></circle>
                        </g>
                        <g id="Target-Copy-65" transform="translate(508.000000, 246.000000)">
                            <path d="M38,19 C38,29.4934102 29.4934102,38 19,38 C8.50658975,38 1.27235083e-15,29.4934102 0,19 C-1.23886791e-15,8.50658975 8.50658975,1.94200916e-15 19,0 C24.0391133,-8.03589999e-16 28.8718377,2.00177997 32.4350288,5.56497116 C35.99822,9.12816235 38,13.9608867 38,19 Z M19,6.33333333 C12.0043932,6.33333333 6.33333333,12.0043932 6.33333333,19 C6.33333333,25.9956068 12.0043932,31.6666667 19,31.6666667 C25.9956068,31.6666667 31.6666667,25.9956068 31.6666667,19 C31.6666667,12.0043932 25.9956068,6.33333333 19,6.33333333 Z" id="_Compound_Path_" fill="#CB2026" fill-rule="nonzero"></path>
                            <circle id="_Path_" fill="#CB2026" fill-rule="nonzero" cx="19.2331288" cy="19" r="6.33333333"></circle>
                        </g>
                        <g id="Target-Copy-92" transform="translate(508.000000, 369.000000)">
                            <path d="M38,19 C38,29.4934102 29.4934102,38 19,38 C8.50658975,38 1.27235083e-15,29.4934102 0,19 C-1.23886791e-15,8.50658975 8.50658975,1.94200916e-15 19,0 C24.0391133,-8.03589999e-16 28.8718377,2.00177997 32.4350288,5.56497116 C35.99822,9.12816235 38,13.9608867 38,19 Z M19,6.33333333 C12.0043932,6.33333333 6.33333333,12.0043932 6.33333333,19 C6.33333333,25.9956068 12.0043932,31.6666667 19,31.6666667 C25.9956068,31.6666667 31.6666667,25.9956068 31.6666667,19 C31.6666667,12.0043932 25.9956068,6.33333333 19,6.33333333 Z" id="_Compound_Path_" fill="#CB2026" fill-rule="nonzero"></path>
                            <circle id="_Path_" fill="#CB2026" fill-rule="nonzero" cx="19.2331288" cy="19" r="6.33333333"></circle>
                        </g>
                        <g id="Target-Copy-19" transform="translate(470.000000, 62.000000)">
                            <path d="M38,19 C38,29.4934102 29.4934102,38 19,38 C8.50658975,38 1.27235083e-15,29.4934102 0,19 C-1.23886791e-15,8.50658975 8.50658975,1.94200916e-15 19,0 C24.0391133,-8.03589999e-16 28.8718377,2.00177997 32.4350288,5.56497116 C35.99822,9.12816235 38,13.9608867 38,19 Z M19,6.33333333 C12.0043932,6.33333333 6.33333333,12.0043932 6.33333333,19 C6.33333333,25.9956068 12.0043932,31.6666667 19,31.6666667 C25.9956068,31.6666667 31.6666667,25.9956068 31.6666667,19 C31.6666667,12.0043932 25.9956068,6.33333333 19,6.33333333 Z" id="_Compound_Path_" fill="#CB2026" fill-rule="nonzero"></path>
                            <circle id="_Path_" fill="#CB2026" fill-rule="nonzero" cx="19.2331288" cy="19" r="6.33333333"></circle>
                        </g>
                        <g id="Target-Copy-39" transform="translate(470.000000, 185.000000)">
                            <path d="M38,19 C38,29.4934102 29.4934102,38 19,38 C8.50658975,38 1.27235083e-15,29.4934102 0,19 C-1.23886791e-15,8.50658975 8.50658975,1.94200916e-15 19,0 C24.0391133,-8.03589999e-16 28.8718377,2.00177997 32.4350288,5.56497116 C35.99822,9.12816235 38,13.9608867 38,19 Z M19,6.33333333 C12.0043932,6.33333333 6.33333333,12.0043932 6.33333333,19 C6.33333333,25.9956068 12.0043932,31.6666667 19,31.6666667 C25.9956068,31.6666667 31.6666667,25.9956068 31.6666667,19 C31.6666667,12.0043932 25.9956068,6.33333333 19,6.33333333 Z" id="_Compound_Path_" fill="#CB2026" fill-rule="nonzero"></path>
                            <circle id="_Path_" fill="#CB2026" fill-rule="nonzero" cx="19.2331288" cy="19" r="6.33333333"></circle>
                        </g>
                        <g id="Target-Copy-66" transform="translate(470.000000, 308.000000)">
                            <path d="M38,19 C38,29.4934102 29.4934102,38 19,38 C8.50658975,38 1.27235083e-15,29.4934102 0,19 C-1.23886791e-15,8.50658975 8.50658975,1.94200916e-15 19,0 C24.0391133,-8.03589999e-16 28.8718377,2.00177997 32.4350288,5.56497116 C35.99822,9.12816235 38,13.9608867 38,19 Z M19,6.33333333 C12.0043932,6.33333333 6.33333333,12.0043932 6.33333333,19 C6.33333333,25.9956068 12.0043932,31.6666667 19,31.6666667 C25.9956068,31.6666667 31.6666667,25.9956068 31.6666667,19 C31.6666667,12.0043932 25.9956068,6.33333333 19,6.33333333 Z" id="_Compound_Path_" fill="#CB2026" fill-rule="nonzero"></path>
                            <circle id="_Path_" fill="#CB2026" fill-rule="nonzero" cx="19.2331288" cy="19" r="6.33333333"></circle>
                        </g>
                        <g id="Target-Copy-10" transform="translate(977.000000, 0.000000)">
                            <path d="M38,19 C38,29.4934102 29.4934102,38 19,38 C8.50658975,38 1.27235083e-15,29.4934102 0,19 C-1.23886791e-15,8.50658975 8.50658975,1.94200916e-15 19,0 C24.0391133,-8.03589999e-16 28.8718377,2.00177997 32.4350288,5.56497116 C35.99822,9.12816235 38,13.9608867 38,19 Z M19,6.33333333 C12.0043932,6.33333333 6.33333333,12.0043932 6.33333333,19 C6.33333333,25.9956068 12.0043932,31.6666667 19,31.6666667 C25.9956068,31.6666667 31.6666667,25.9956068 31.6666667,19 C31.6666667,12.0043932 25.9956068,6.33333333 19,6.33333333 Z" id="_Compound_Path_" fill="#CB2026" fill-rule="nonzero"></path>
                            <circle id="_Path_" fill="#CB2026" fill-rule="nonzero" cx="19.2331288" cy="19" r="6.33333333"></circle>
                        </g>
                        <g id="Target-Copy-40" transform="translate(977.000000, 123.000000)">
                            <path d="M38,19 C38,29.4934102 29.4934102,38 19,38 C8.50658975,38 1.27235083e-15,29.4934102 0,19 C-1.23886791e-15,8.50658975 8.50658975,1.94200916e-15 19,0 C24.0391133,-8.03589999e-16 28.8718377,2.00177997 32.4350288,5.56497116 C35.99822,9.12816235 38,13.9608867 38,19 Z M19,6.33333333 C12.0043932,6.33333333 6.33333333,12.0043932 6.33333333,19 C6.33333333,25.9956068 12.0043932,31.6666667 19,31.6666667 C25.9956068,31.6666667 31.6666667,25.9956068 31.6666667,19 C31.6666667,12.0043932 25.9956068,6.33333333 19,6.33333333 Z" id="_Compound_Path_" fill="#CB2026" fill-rule="nonzero"></path>
                            <circle id="_Path_" fill="#CB2026" fill-rule="nonzero" cx="19.2331288" cy="19" r="6.33333333"></circle>
                        </g>
                        <g id="Target-Copy-67" transform="translate(977.000000, 246.000000)">
                            <path d="M38,19 C38,29.4934102 29.4934102,38 19,38 C8.50658975,38 1.27235083e-15,29.4934102 0,19 C-1.23886791e-15,8.50658975 8.50658975,1.94200916e-15 19,0 C24.0391133,-8.03589999e-16 28.8718377,2.00177997 32.4350288,5.56497116 C35.99822,9.12816235 38,13.9608867 38,19 Z M19,6.33333333 C12.0043932,6.33333333 6.33333333,12.0043932 6.33333333,19 C6.33333333,25.9956068 12.0043932,31.6666667 19,31.6666667 C25.9956068,31.6666667 31.6666667,25.9956068 31.6666667,19 C31.6666667,12.0043932 25.9956068,6.33333333 19,6.33333333 Z" id="_Compound_Path_" fill="#CB2026" fill-rule="nonzero"></path>
                            <circle id="_Path_" fill="#CB2026" fill-rule="nonzero" cx="19.2331288" cy="19" r="6.33333333"></circle>
                        </g>
                        <g id="Target-Copy-109" transform="translate(1056.000000, 246.000000)">
                            <path d="M38,19 C38,29.4934102 29.4934102,38 19,38 C8.50658975,38 1.27235083e-15,29.4934102 0,19 C-1.23886791e-15,8.50658975 8.50658975,1.94200916e-15 19,0 C24.0391133,-8.03589999e-16 28.8718377,2.00177997 32.4350288,5.56497116 C35.99822,9.12816235 38,13.9608867 38,19 Z M19,6.33333333 C12.0043932,6.33333333 6.33333333,12.0043932 6.33333333,19 C6.33333333,25.9956068 12.0043932,31.6666667 19,31.6666667 C25.9956068,31.6666667 31.6666667,25.9956068 31.6666667,19 C31.6666667,12.0043932 25.9956068,6.33333333 19,6.33333333 Z" id="_Compound_Path_" fill="#CB2026" fill-rule="nonzero"></path>
                            <circle id="_Path_" fill="#CB2026" fill-rule="nonzero" cx="19.2331288" cy="19" r="6.33333333"></circle>
                        </g>
                        <g id="Target-Copy-111" transform="translate(1056.000000, 123.000000)">
                            <path d="M38,19 C38,29.4934102 29.4934102,38 19,38 C8.50658975,38 1.27235083e-15,29.4934102 0,19 C-1.23886791e-15,8.50658975 8.50658975,1.94200916e-15 19,0 C24.0391133,-8.03589999e-16 28.8718377,2.00177997 32.4350288,5.56497116 C35.99822,9.12816235 38,13.9608867 38,19 Z M19,6.33333333 C12.0043932,6.33333333 6.33333333,12.0043932 6.33333333,19 C6.33333333,25.9956068 12.0043932,31.6666667 19,31.6666667 C25.9956068,31.6666667 31.6666667,25.9956068 31.6666667,19 C31.6666667,12.0043932 25.9956068,6.33333333 19,6.33333333 Z" id="_Compound_Path_" fill="#CB2026" fill-rule="nonzero"></path>
                            <circle id="_Path_" fill="#CB2026" fill-rule="nonzero" cx="19.2331288" cy="19" r="6.33333333"></circle>
                        </g>
                        <g id="Target-Copy-110" transform="translate(1056.000000, 369.000000)">
                            <path d="M38,19 C38,29.4934102 29.4934102,38 19,38 C8.50658975,38 1.27235083e-15,29.4934102 0,19 C-1.23886791e-15,8.50658975 8.50658975,1.94200916e-15 19,0 C24.0391133,-8.03589999e-16 28.8718377,2.00177997 32.4350288,5.56497116 C35.99822,9.12816235 38,13.9608867 38,19 Z M19,6.33333333 C12.0043932,6.33333333 6.33333333,12.0043932 6.33333333,19 C6.33333333,25.9956068 12.0043932,31.6666667 19,31.6666667 C25.9956068,31.6666667 31.6666667,25.9956068 31.6666667,19 C31.6666667,12.0043932 25.9956068,6.33333333 19,6.33333333 Z" id="_Compound_Path_" fill="#CB2026" fill-rule="nonzero"></path>
                            <circle id="_Path_" fill="#CB2026" fill-rule="nonzero" cx="19.2331288" cy="19" r="6.33333333"></circle>
                        </g>
                        <g id="Target-Copy-94" transform="translate(977.000000, 369.000000)">
                            <path d="M38,19 C38,29.4934102 29.4934102,38 19,38 C8.50658975,38 1.27235083e-15,29.4934102 0,19 C-1.23886791e-15,8.50658975 8.50658975,1.94200916e-15 19,0 C24.0391133,-8.03589999e-16 28.8718377,2.00177997 32.4350288,5.56497116 C35.99822,9.12816235 38,13.9608867 38,19 Z M19,6.33333333 C12.0043932,6.33333333 6.33333333,12.0043932 6.33333333,19 C6.33333333,25.9956068 12.0043932,31.6666667 19,31.6666667 C25.9956068,31.6666667 31.6666667,25.9956068 31.6666667,19 C31.6666667,12.0043932 25.9956068,6.33333333 19,6.33333333 Z" id="_Compound_Path_" fill="#CB2026" fill-rule="nonzero"></path>
                            <circle id="_Path_" fill="#CB2026" fill-rule="nonzero" cx="19.2331288" cy="19" r="6.33333333"></circle>
                        </g>
                        <g id="Target-Copy-20" transform="translate(939.000000, 62.000000)">
                            <path d="M38,19 C38,29.4934102 29.4934102,38 19,38 C8.50658975,38 1.27235083e-15,29.4934102 0,19 C-1.23886791e-15,8.50658975 8.50658975,1.94200916e-15 19,0 C24.0391133,-8.03589999e-16 28.8718377,2.00177997 32.4350288,5.56497116 C35.99822,9.12816235 38,13.9608867 38,19 Z M19,6.33333333 C12.0043932,6.33333333 6.33333333,12.0043932 6.33333333,19 C6.33333333,25.9956068 12.0043932,31.6666667 19,31.6666667 C25.9956068,31.6666667 31.6666667,25.9956068 31.6666667,19 C31.6666667,12.0043932 25.9956068,6.33333333 19,6.33333333 Z" id="_Compound_Path_" fill="#CB2026" fill-rule="nonzero"></path>
                            <circle id="_Path_" fill="#CB2026" fill-rule="nonzero" cx="19.2331288" cy="19" r="6.33333333"></circle>
                        </g>
                        <g id="Target-Copy-41" transform="translate(939.000000, 185.000000)">
                            <path d="M38,19 C38,29.4934102 29.4934102,38 19,38 C8.50658975,38 1.27235083e-15,29.4934102 0,19 C-1.23886791e-15,8.50658975 8.50658975,1.94200916e-15 19,0 C24.0391133,-8.03589999e-16 28.8718377,2.00177997 32.4350288,5.56497116 C35.99822,9.12816235 38,13.9608867 38,19 Z M19,6.33333333 C12.0043932,6.33333333 6.33333333,12.0043932 6.33333333,19 C6.33333333,25.9956068 12.0043932,31.6666667 19,31.6666667 C25.9956068,31.6666667 31.6666667,25.9956068 31.6666667,19 C31.6666667,12.0043932 25.9956068,6.33333333 19,6.33333333 Z" id="_Compound_Path_" fill="#CB2026" fill-rule="nonzero"></path>
                            <circle id="_Path_" fill="#CB2026" fill-rule="nonzero" cx="19.2331288" cy="19" r="6.33333333"></circle>
                        </g>
                        <g id="Target-Copy-68" transform="translate(939.000000, 308.000000)">
                            <path d="M38,19 C38,29.4934102 29.4934102,38 19,38 C8.50658975,38 1.27235083e-15,29.4934102 0,19 C-1.23886791e-15,8.50658975 8.50658975,1.94200916e-15 19,0 C24.0391133,-8.03589999e-16 28.8718377,2.00177997 32.4350288,5.56497116 C35.99822,9.12816235 38,13.9608867 38,19 Z M19,6.33333333 C12.0043932,6.33333333 6.33333333,12.0043932 6.33333333,19 C6.33333333,25.9956068 12.0043932,31.6666667 19,31.6666667 C25.9956068,31.6666667 31.6666667,25.9956068 31.6666667,19 C31.6666667,12.0043932 25.9956068,6.33333333 19,6.33333333 Z" id="_Compound_Path_" fill="#CB2026" fill-rule="nonzero"></path>
                            <circle id="_Path_" fill="#CB2026" fill-rule="nonzero" cx="19.2331288" cy="19" r="6.33333333"></circle>
                        </g>
                        <g id="Target-Copy" transform="translate(115.000000, 0.000000)">
                            <path d="M38,19 C38,29.4934102 29.4934102,38 19,38 C8.50658975,38 1.27235083e-15,29.4934102 0,19 C-1.23886791e-15,8.50658975 8.50658975,1.94200916e-15 19,0 C24.0391133,-8.03589999e-16 28.8718377,2.00177997 32.4350288,5.56497116 C35.99822,9.12816235 38,13.9608867 38,19 Z M19,6.33333333 C12.0043932,6.33333333 6.33333333,12.0043932 6.33333333,19 C6.33333333,25.9956068 12.0043932,31.6666667 19,31.6666667 C25.9956068,31.6666667 31.6666667,25.9956068 31.6666667,19 C31.6666667,12.0043932 25.9956068,6.33333333 19,6.33333333 Z" id="_Compound_Path_" fill="#CB2026" fill-rule="nonzero"></path>
                            <circle id="_Path_" fill="#CB2026" fill-rule="nonzero" cx="19.2331288" cy="19" r="6.33333333"></circle>
                        </g>
                        <g id="Target-Copy-42" transform="translate(115.000000, 123.000000)">
                            <path d="M38,19 C38,29.4934102 29.4934102,38 19,38 C8.50658975,38 1.27235083e-15,29.4934102 0,19 C-1.23886791e-15,8.50658975 8.50658975,1.94200916e-15 19,0 C24.0391133,-8.03589999e-16 28.8718377,2.00177997 32.4350288,5.56497116 C35.99822,9.12816235 38,13.9608867 38,19 Z M19,6.33333333 C12.0043932,6.33333333 6.33333333,12.0043932 6.33333333,19 C6.33333333,25.9956068 12.0043932,31.6666667 19,31.6666667 C25.9956068,31.6666667 31.6666667,25.9956068 31.6666667,19 C31.6666667,12.0043932 25.9956068,6.33333333 19,6.33333333 Z" id="_Compound_Path_" fill="#CB2026" fill-rule="nonzero"></path>
                            <circle id="_Path_" fill="#CB2026" fill-rule="nonzero" cx="19.2331288" cy="19" r="6.33333333"></circle>
                        </g>
                        <g id="Target-Copy-69" transform="translate(115.000000, 246.000000)">
                            <path d="M38,19 C38,29.4934102 29.4934102,38 19,38 C8.50658975,38 1.27235083e-15,29.4934102 0,19 C-1.23886791e-15,8.50658975 8.50658975,1.94200916e-15 19,0 C24.0391133,-8.03589999e-16 28.8718377,2.00177997 32.4350288,5.56497116 C35.99822,9.12816235 38,13.9608867 38,19 Z M19,6.33333333 C12.0043932,6.33333333 6.33333333,12.0043932 6.33333333,19 C6.33333333,25.9956068 12.0043932,31.6666667 19,31.6666667 C25.9956068,31.6666667 31.6666667,25.9956068 31.6666667,19 C31.6666667,12.0043932 25.9956068,6.33333333 19,6.33333333 Z" id="_Compound_Path_" fill="#CB2026" fill-rule="nonzero"></path>
                            <circle id="_Path_" fill="#CB2026" fill-rule="nonzero" cx="19.2331288" cy="19" r="6.33333333"></circle>
                        </g>
                        <g id="Target-Copy-96" transform="translate(115.000000, 369.000000)">
                            <path d="M38,19 C38,29.4934102 29.4934102,38 19,38 C8.50658975,38 1.27235083e-15,29.4934102 0,19 C-1.23886791e-15,8.50658975 8.50658975,1.94200916e-15 19,0 C24.0391133,-8.03589999e-16 28.8718377,2.00177997 32.4350288,5.56497116 C35.99822,9.12816235 38,13.9608867 38,19 Z M19,6.33333333 C12.0043932,6.33333333 6.33333333,12.0043932 6.33333333,19 C6.33333333,25.9956068 12.0043932,31.6666667 19,31.6666667 C25.9956068,31.6666667 31.6666667,25.9956068 31.6666667,19 C31.6666667,12.0043932 25.9956068,6.33333333 19,6.33333333 Z" id="_Compound_Path_" fill="#CB2026" fill-rule="nonzero"></path>
                            <circle id="_Path_" fill="#CB2026" fill-rule="nonzero" cx="19.2331288" cy="19" r="6.33333333"></circle>
                        </g>
                        <g id="Target-Copy-21" transform="translate(78.000000, 62.000000)">
                            <path d="M38,19 C38,29.4934102 29.4934102,38 19,38 C8.50658975,38 1.27235083e-15,29.4934102 0,19 C-1.23886791e-15,8.50658975 8.50658975,1.94200916e-15 19,0 C24.0391133,-8.03589999e-16 28.8718377,2.00177997 32.4350288,5.56497116 C35.99822,9.12816235 38,13.9608867 38,19 Z M19,6.33333333 C12.0043932,6.33333333 6.33333333,12.0043932 6.33333333,19 C6.33333333,25.9956068 12.0043932,31.6666667 19,31.6666667 C25.9956068,31.6666667 31.6666667,25.9956068 31.6666667,19 C31.6666667,12.0043932 25.9956068,6.33333333 19,6.33333333 Z" id="_Compound_Path_" fill="#CB2026" fill-rule="nonzero"></path>
                            <circle id="_Path_" fill="#CB2026" fill-rule="nonzero" cx="19.2331288" cy="19" r="6.33333333"></circle>
                        </g>
                        <g id="Target-Copy-43" transform="translate(78.000000, 185.000000)">
                            <path d="M38,19 C38,29.4934102 29.4934102,38 19,38 C8.50658975,38 1.27235083e-15,29.4934102 0,19 C-1.23886791e-15,8.50658975 8.50658975,1.94200916e-15 19,0 C24.0391133,-8.03589999e-16 28.8718377,2.00177997 32.4350288,5.56497116 C35.99822,9.12816235 38,13.9608867 38,19 Z M19,6.33333333 C12.0043932,6.33333333 6.33333333,12.0043932 6.33333333,19 C6.33333333,25.9956068 12.0043932,31.6666667 19,31.6666667 C25.9956068,31.6666667 31.6666667,25.9956068 31.6666667,19 C31.6666667,12.0043932 25.9956068,6.33333333 19,6.33333333 Z" id="_Compound_Path_" fill="#CB2026" fill-rule="nonzero"></path>
                            <circle id="_Path_" fill="#CB2026" fill-rule="nonzero" cx="19.2331288" cy="19" r="6.33333333"></circle>
                        </g>
                        <g id="Target-Copy-70" transform="translate(78.000000, 308.000000)">
                            <path d="M38,19 C38,29.4934102 29.4934102,38 19,38 C8.50658975,38 1.27235083e-15,29.4934102 0,19 C-1.23886791e-15,8.50658975 8.50658975,1.94200916e-15 19,0 C24.0391133,-8.03589999e-16 28.8718377,2.00177997 32.4350288,5.56497116 C35.99822,9.12816235 38,13.9608867 38,19 Z M19,6.33333333 C12.0043932,6.33333333 6.33333333,12.0043932 6.33333333,19 C6.33333333,25.9956068 12.0043932,31.6666667 19,31.6666667 C25.9956068,31.6666667 31.6666667,25.9956068 31.6666667,19 C31.6666667,12.0043932 25.9956068,6.33333333 19,6.33333333 Z" id="_Compound_Path_" fill="#CB2026" fill-rule="nonzero"></path>
                            <circle id="_Path_" fill="#CB2026" fill-rule="nonzero" cx="19.2331288" cy="19" r="6.33333333"></circle>
                        </g>
                        <g id="Target-Copy-6" transform="translate(429.000000, 0.000000)">
                            <path d="M38,19 C38,29.4934102 29.4934102,38 19,38 C8.50658975,38 1.27235083e-15,29.4934102 0,19 C-1.23886791e-15,8.50658975 8.50658975,1.94200916e-15 19,0 C24.0391133,-8.03589999e-16 28.8718377,2.00177997 32.4350288,5.56497116 C35.99822,9.12816235 38,13.9608867 38,19 Z M19,6.33333333 C12.0043932,6.33333333 6.33333333,12.0043932 6.33333333,19 C6.33333333,25.9956068 12.0043932,31.6666667 19,31.6666667 C25.9956068,31.6666667 31.6666667,25.9956068 31.6666667,19 C31.6666667,12.0043932 25.9956068,6.33333333 19,6.33333333 Z" id="_Compound_Path_" fill="#CB2026" fill-rule="nonzero"></path>
                            <circle id="_Path_" fill="#CB2026" fill-rule="nonzero" cx="19.2331288" cy="19" r="6.33333333"></circle>
                        </g>
                        <g id="Target-Copy-44" transform="translate(429.000000, 123.000000)">
                            <path d="M38,19 C38,29.4934102 29.4934102,38 19,38 C8.50658975,38 1.27235083e-15,29.4934102 0,19 C-1.23886791e-15,8.50658975 8.50658975,1.94200916e-15 19,0 C24.0391133,-8.03589999e-16 28.8718377,2.00177997 32.4350288,5.56497116 C35.99822,9.12816235 38,13.9608867 38,19 Z M19,6.33333333 C12.0043932,6.33333333 6.33333333,12.0043932 6.33333333,19 C6.33333333,25.9956068 12.0043932,31.6666667 19,31.6666667 C25.9956068,31.6666667 31.6666667,25.9956068 31.6666667,19 C31.6666667,12.0043932 25.9956068,6.33333333 19,6.33333333 Z" id="_Compound_Path_" fill="#CB2026" fill-rule="nonzero"></path>
                            <circle id="_Path_" fill="#CB2026" fill-rule="nonzero" cx="19.2331288" cy="19" r="6.33333333"></circle>
                        </g>
                        <g id="Target-Copy-71" transform="translate(429.000000, 246.000000)">
                            <path d="M38,19 C38,29.4934102 29.4934102,38 19,38 C8.50658975,38 1.27235083e-15,29.4934102 0,19 C-1.23886791e-15,8.50658975 8.50658975,1.94200916e-15 19,0 C24.0391133,-8.03589999e-16 28.8718377,2.00177997 32.4350288,5.56497116 C35.99822,9.12816235 38,13.9608867 38,19 Z M19,6.33333333 C12.0043932,6.33333333 6.33333333,12.0043932 6.33333333,19 C6.33333333,25.9956068 12.0043932,31.6666667 19,31.6666667 C25.9956068,31.6666667 31.6666667,25.9956068 31.6666667,19 C31.6666667,12.0043932 25.9956068,6.33333333 19,6.33333333 Z" id="_Compound_Path_" fill="#CB2026" fill-rule="nonzero"></path>
                            <circle id="_Path_" fill="#CB2026" fill-rule="nonzero" cx="19.2331288" cy="19" r="6.33333333"></circle>
                        </g>
                        <g id="Target-Copy-98" transform="translate(429.000000, 369.000000)">
                            <path d="M38,19 C38,29.4934102 29.4934102,38 19,38 C8.50658975,38 1.27235083e-15,29.4934102 0,19 C-1.23886791e-15,8.50658975 8.50658975,1.94200916e-15 19,0 C24.0391133,-8.03589999e-16 28.8718377,2.00177997 32.4350288,5.56497116 C35.99822,9.12816235 38,13.9608867 38,19 Z M19,6.33333333 C12.0043932,6.33333333 6.33333333,12.0043932 6.33333333,19 C6.33333333,25.9956068 12.0043932,31.6666667 19,31.6666667 C25.9956068,31.6666667 31.6666667,25.9956068 31.6666667,19 C31.6666667,12.0043932 25.9956068,6.33333333 19,6.33333333 Z" id="_Compound_Path_" fill="#CB2026" fill-rule="nonzero"></path>
                            <circle id="_Path_" fill="#CB2026" fill-rule="nonzero" cx="19.2331288" cy="19" r="6.33333333"></circle>
                        </g>
                        <g id="Target-Copy-22" transform="translate(391.000000, 62.000000)">
                            <path d="M38,19 C38,29.4934102 29.4934102,38 19,38 C8.50658975,38 1.27235083e-15,29.4934102 0,19 C-1.23886791e-15,8.50658975 8.50658975,1.94200916e-15 19,0 C24.0391133,-8.03589999e-16 28.8718377,2.00177997 32.4350288,5.56497116 C35.99822,9.12816235 38,13.9608867 38,19 Z M19,6.33333333 C12.0043932,6.33333333 6.33333333,12.0043932 6.33333333,19 C6.33333333,25.9956068 12.0043932,31.6666667 19,31.6666667 C25.9956068,31.6666667 31.6666667,25.9956068 31.6666667,19 C31.6666667,12.0043932 25.9956068,6.33333333 19,6.33333333 Z" id="_Compound_Path_" fill="#CB2026" fill-rule="nonzero"></path>
                            <circle id="_Path_" fill="#CB2026" fill-rule="nonzero" cx="19.2331288" cy="19" r="6.33333333"></circle>
                        </g>
                        <g id="Target-Copy-45" transform="translate(391.000000, 185.000000)">
                            <path d="M38,19 C38,29.4934102 29.4934102,38 19,38 C8.50658975,38 1.27235083e-15,29.4934102 0,19 C-1.23886791e-15,8.50658975 8.50658975,1.94200916e-15 19,0 C24.0391133,-8.03589999e-16 28.8718377,2.00177997 32.4350288,5.56497116 C35.99822,9.12816235 38,13.9608867 38,19 Z M19,6.33333333 C12.0043932,6.33333333 6.33333333,12.0043932 6.33333333,19 C6.33333333,25.9956068 12.0043932,31.6666667 19,31.6666667 C25.9956068,31.6666667 31.6666667,25.9956068 31.6666667,19 C31.6666667,12.0043932 25.9956068,6.33333333 19,6.33333333 Z" id="_Compound_Path_" fill="#CB2026" fill-rule="nonzero"></path>
                            <circle id="_Path_" fill="#CB2026" fill-rule="nonzero" cx="19.2331288" cy="19" r="6.33333333"></circle>
                        </g>
                        <g id="Target-Copy-72" transform="translate(391.000000, 308.000000)">
                            <path d="M38,19 C38,29.4934102 29.4934102,38 19,38 C8.50658975,38 1.27235083e-15,29.4934102 0,19 C-1.23886791e-15,8.50658975 8.50658975,1.94200916e-15 19,0 C24.0391133,-8.03589999e-16 28.8718377,2.00177997 32.4350288,5.56497116 C35.99822,9.12816235 38,13.9608867 38,19 Z M19,6.33333333 C12.0043932,6.33333333 6.33333333,12.0043932 6.33333333,19 C6.33333333,25.9956068 12.0043932,31.6666667 19,31.6666667 C25.9956068,31.6666667 31.6666667,25.9956068 31.6666667,19 C31.6666667,12.0043932 25.9956068,6.33333333 19,6.33333333 Z" id="_Compound_Path_" fill="#CB2026" fill-rule="nonzero"></path>
                            <circle id="_Path_" fill="#CB2026" fill-rule="nonzero" cx="19.2331288" cy="19" r="6.33333333"></circle>
                        </g>
                        <g id="Target-Copy-11" transform="translate(898.000000, 0.000000)">
                            <path d="M38,19 C38,29.4934102 29.4934102,38 19,38 C8.50658975,38 1.27235083e-15,29.4934102 0,19 C-1.23886791e-15,8.50658975 8.50658975,1.94200916e-15 19,0 C24.0391133,-8.03589999e-16 28.8718377,2.00177997 32.4350288,5.56497116 C35.99822,9.12816235 38,13.9608867 38,19 Z M19,6.33333333 C12.0043932,6.33333333 6.33333333,12.0043932 6.33333333,19 C6.33333333,25.9956068 12.0043932,31.6666667 19,31.6666667 C25.9956068,31.6666667 31.6666667,25.9956068 31.6666667,19 C31.6666667,12.0043932 25.9956068,6.33333333 19,6.33333333 Z" id="_Compound_Path_" fill="#CB2026" fill-rule="nonzero"></path>
                            <circle id="_Path_" fill="#CB2026" fill-rule="nonzero" cx="19.2331288" cy="19" r="6.33333333"></circle>
                        </g>
                        <g id="Target-Copy-46" transform="translate(898.000000, 123.000000)">
                            <path d="M38,19 C38,29.4934102 29.4934102,38 19,38 C8.50658975,38 1.27235083e-15,29.4934102 0,19 C-1.23886791e-15,8.50658975 8.50658975,1.94200916e-15 19,0 C24.0391133,-8.03589999e-16 28.8718377,2.00177997 32.4350288,5.56497116 C35.99822,9.12816235 38,13.9608867 38,19 Z M19,6.33333333 C12.0043932,6.33333333 6.33333333,12.0043932 6.33333333,19 C6.33333333,25.9956068 12.0043932,31.6666667 19,31.6666667 C25.9956068,31.6666667 31.6666667,25.9956068 31.6666667,19 C31.6666667,12.0043932 25.9956068,6.33333333 19,6.33333333 Z" id="_Compound_Path_" fill="#CB2026" fill-rule="nonzero"></path>
                            <circle id="_Path_" fill="#CB2026" fill-rule="nonzero" cx="19.2331288" cy="19" r="6.33333333"></circle>
                        </g>
                        <g id="Target-Copy-73" transform="translate(898.000000, 246.000000)">
                            <path d="M38,19 C38,29.4934102 29.4934102,38 19,38 C8.50658975,38 1.27235083e-15,29.4934102 0,19 C-1.23886791e-15,8.50658975 8.50658975,1.94200916e-15 19,0 C24.0391133,-8.03589999e-16 28.8718377,2.00177997 32.4350288,5.56497116 C35.99822,9.12816235 38,13.9608867 38,19 Z M19,6.33333333 C12.0043932,6.33333333 6.33333333,12.0043932 6.33333333,19 C6.33333333,25.9956068 12.0043932,31.6666667 19,31.6666667 C25.9956068,31.6666667 31.6666667,25.9956068 31.6666667,19 C31.6666667,12.0043932 25.9956068,6.33333333 19,6.33333333 Z" id="_Compound_Path_" fill="#CB2026" fill-rule="nonzero"></path>
                            <circle id="_Path_" fill="#CB2026" fill-rule="nonzero" cx="19.2331288" cy="19" r="6.33333333"></circle>
                        </g>
                        <g id="Target-Copy-100" transform="translate(898.000000, 369.000000)">
                            <path d="M38,19 C38,29.4934102 29.4934102,38 19,38 C8.50658975,38 1.27235083e-15,29.4934102 0,19 C-1.23886791e-15,8.50658975 8.50658975,1.94200916e-15 19,0 C24.0391133,-8.03589999e-16 28.8718377,2.00177997 32.4350288,5.56497116 C35.99822,9.12816235 38,13.9608867 38,19 Z M19,6.33333333 C12.0043932,6.33333333 6.33333333,12.0043932 6.33333333,19 C6.33333333,25.9956068 12.0043932,31.6666667 19,31.6666667 C25.9956068,31.6666667 31.6666667,25.9956068 31.6666667,19 C31.6666667,12.0043932 25.9956068,6.33333333 19,6.33333333 Z" id="_Compound_Path_" fill="#CB2026" fill-rule="nonzero"></path>
                            <circle id="_Path_" fill="#CB2026" fill-rule="nonzero" cx="19.2331288" cy="19" r="6.33333333"></circle>
                        </g>
                        <g id="Target-Copy-23" transform="translate(860.000000, 62.000000)">
                            <path d="M38,19 C38,29.4934102 29.4934102,38 19,38 C8.50658975,38 1.27235083e-15,29.4934102 0,19 C-1.23886791e-15,8.50658975 8.50658975,1.94200916e-15 19,0 C24.0391133,-8.03589999e-16 28.8718377,2.00177997 32.4350288,5.56497116 C35.99822,9.12816235 38,13.9608867 38,19 Z M19,6.33333333 C12.0043932,6.33333333 6.33333333,12.0043932 6.33333333,19 C6.33333333,25.9956068 12.0043932,31.6666667 19,31.6666667 C25.9956068,31.6666667 31.6666667,25.9956068 31.6666667,19 C31.6666667,12.0043932 25.9956068,6.33333333 19,6.33333333 Z" id="_Compound_Path_" fill="#CB2026" fill-rule="nonzero"></path>
                            <circle id="_Path_" fill="#CB2026" fill-rule="nonzero" cx="19.2331288" cy="19" r="6.33333333"></circle>
                        </g>
                        <g id="Target-Copy-47" transform="translate(860.000000, 185.000000)">
                            <path d="M38,19 C38,29.4934102 29.4934102,38 19,38 C8.50658975,38 1.27235083e-15,29.4934102 0,19 C-1.23886791e-15,8.50658975 8.50658975,1.94200916e-15 19,0 C24.0391133,-8.03589999e-16 28.8718377,2.00177997 32.4350288,5.56497116 C35.99822,9.12816235 38,13.9608867 38,19 Z M19,6.33333333 C12.0043932,6.33333333 6.33333333,12.0043932 6.33333333,19 C6.33333333,25.9956068 12.0043932,31.6666667 19,31.6666667 C25.9956068,31.6666667 31.6666667,25.9956068 31.6666667,19 C31.6666667,12.0043932 25.9956068,6.33333333 19,6.33333333 Z" id="_Compound_Path_" fill="#CB2026" fill-rule="nonzero"></path>
                            <circle id="_Path_" fill="#CB2026" fill-rule="nonzero" cx="19.2331288" cy="19" r="6.33333333"></circle>
                        </g>
                        <g id="Target-Copy-74" transform="translate(860.000000, 308.000000)">
                            <path d="M38,19 C38,29.4934102 29.4934102,38 19,38 C8.50658975,38 1.27235083e-15,29.4934102 0,19 C-1.23886791e-15,8.50658975 8.50658975,1.94200916e-15 19,0 C24.0391133,-8.03589999e-16 28.8718377,2.00177997 32.4350288,5.56497116 C35.99822,9.12816235 38,13.9608867 38,19 Z M19,6.33333333 C12.0043932,6.33333333 6.33333333,12.0043932 6.33333333,19 C6.33333333,25.9956068 12.0043932,31.6666667 19,31.6666667 C25.9956068,31.6666667 31.6666667,25.9956068 31.6666667,19 C31.6666667,12.0043932 25.9956068,6.33333333 19,6.33333333 Z" id="_Compound_Path_" fill="#CB2026" fill-rule="nonzero"></path>
                            <circle id="_Path_" fill="#CB2026" fill-rule="nonzero" cx="19.2331288" cy="19" r="6.33333333"></circle>
                        </g>
                        <g id="Target-Copy-3" transform="translate(273.000000, 0.000000)">
                            <path d="M38,19 C38,29.4934102 29.4934102,38 19,38 C8.50658975,38 1.27235083e-15,29.4934102 0,19 C-1.23886791e-15,8.50658975 8.50658975,1.94200916e-15 19,0 C24.0391133,-8.03589999e-16 28.8718377,2.00177997 32.4350288,5.56497116 C35.99822,9.12816235 38,13.9608867 38,19 Z M19,6.33333333 C12.0043932,6.33333333 6.33333333,12.0043932 6.33333333,19 C6.33333333,25.9956068 12.0043932,31.6666667 19,31.6666667 C25.9956068,31.6666667 31.6666667,25.9956068 31.6666667,19 C31.6666667,12.0043932 25.9956068,6.33333333 19,6.33333333 Z" id="_Compound_Path_" fill="#CB2026" fill-rule="nonzero"></path>
                            <circle id="_Path_" fill="#CB2026" fill-rule="nonzero" cx="19.2331288" cy="19" r="6.33333333"></circle>
                        </g>
                        <g id="Target-Copy-48" transform="translate(273.000000, 123.000000)">
                            <path d="M38,19 C38,29.4934102 29.4934102,38 19,38 C8.50658975,38 1.27235083e-15,29.4934102 0,19 C-1.23886791e-15,8.50658975 8.50658975,1.94200916e-15 19,0 C24.0391133,-8.03589999e-16 28.8718377,2.00177997 32.4350288,5.56497116 C35.99822,9.12816235 38,13.9608867 38,19 Z M19,6.33333333 C12.0043932,6.33333333 6.33333333,12.0043932 6.33333333,19 C6.33333333,25.9956068 12.0043932,31.6666667 19,31.6666667 C25.9956068,31.6666667 31.6666667,25.9956068 31.6666667,19 C31.6666667,12.0043932 25.9956068,6.33333333 19,6.33333333 Z" id="_Compound_Path_" fill="#CB2026" fill-rule="nonzero"></path>
                            <circle id="_Path_" fill="#CB2026" fill-rule="nonzero" cx="19.2331288" cy="19" r="6.33333333"></circle>
                        </g>
                        <g id="Target-Copy-75" transform="translate(273.000000, 246.000000)">
                            <path d="M38,19 C38,29.4934102 29.4934102,38 19,38 C8.50658975,38 1.27235083e-15,29.4934102 0,19 C-1.23886791e-15,8.50658975 8.50658975,1.94200916e-15 19,0 C24.0391133,-8.03589999e-16 28.8718377,2.00177997 32.4350288,5.56497116 C35.99822,9.12816235 38,13.9608867 38,19 Z M19,6.33333333 C12.0043932,6.33333333 6.33333333,12.0043932 6.33333333,19 C6.33333333,25.9956068 12.0043932,31.6666667 19,31.6666667 C25.9956068,31.6666667 31.6666667,25.9956068 31.6666667,19 C31.6666667,12.0043932 25.9956068,6.33333333 19,6.33333333 Z" id="_Compound_Path_" fill="#CB2026" fill-rule="nonzero"></path>
                            <circle id="_Path_" fill="#CB2026" fill-rule="nonzero" cx="19.2331288" cy="19" r="6.33333333"></circle>
                        </g>
                        <g id="Target-Copy-102" transform="translate(273.000000, 369.000000)">
                            <path d="M38,19 C38,29.4934102 29.4934102,38 19,38 C8.50658975,38 1.27235083e-15,29.4934102 0,19 C-1.23886791e-15,8.50658975 8.50658975,1.94200916e-15 19,0 C24.0391133,-8.03589999e-16 28.8718377,2.00177997 32.4350288,5.56497116 C35.99822,9.12816235 38,13.9608867 38,19 Z M19,6.33333333 C12.0043932,6.33333333 6.33333333,12.0043932 6.33333333,19 C6.33333333,25.9956068 12.0043932,31.6666667 19,31.6666667 C25.9956068,31.6666667 31.6666667,25.9956068 31.6666667,19 C31.6666667,12.0043932 25.9956068,6.33333333 19,6.33333333 Z" id="_Compound_Path_" fill="#CB2026" fill-rule="nonzero"></path>
                            <circle id="_Path_" fill="#CB2026" fill-rule="nonzero" cx="19.2331288" cy="19" r="6.33333333"></circle>
                        </g>
                        <g id="Target-Copy-24" transform="translate(235.000000, 62.000000)">
                            <path d="M38,19 C38,29.4934102 29.4934102,38 19,38 C8.50658975,38 1.27235083e-15,29.4934102 0,19 C-1.23886791e-15,8.50658975 8.50658975,1.94200916e-15 19,0 C24.0391133,-8.03589999e-16 28.8718377,2.00177997 32.4350288,5.56497116 C35.99822,9.12816235 38,13.9608867 38,19 Z M19,6.33333333 C12.0043932,6.33333333 6.33333333,12.0043932 6.33333333,19 C6.33333333,25.9956068 12.0043932,31.6666667 19,31.6666667 C25.9956068,31.6666667 31.6666667,25.9956068 31.6666667,19 C31.6666667,12.0043932 25.9956068,6.33333333 19,6.33333333 Z" id="_Compound_Path_" fill="#CB2026" fill-rule="nonzero"></path>
                            <circle id="_Path_" fill="#CB2026" fill-rule="nonzero" cx="19.2331288" cy="19" r="6.33333333"></circle>
                        </g>
                        <g id="Target-Copy-49" transform="translate(235.000000, 185.000000)">
                            <path d="M38,19 C38,29.4934102 29.4934102,38 19,38 C8.50658975,38 1.27235083e-15,29.4934102 0,19 C-1.23886791e-15,8.50658975 8.50658975,1.94200916e-15 19,0 C24.0391133,-8.03589999e-16 28.8718377,2.00177997 32.4350288,5.56497116 C35.99822,9.12816235 38,13.9608867 38,19 Z M19,6.33333333 C12.0043932,6.33333333 6.33333333,12.0043932 6.33333333,19 C6.33333333,25.9956068 12.0043932,31.6666667 19,31.6666667 C25.9956068,31.6666667 31.6666667,25.9956068 31.6666667,19 C31.6666667,12.0043932 25.9956068,6.33333333 19,6.33333333 Z" id="_Compound_Path_" fill="#CB2026" fill-rule="nonzero"></path>
                            <circle id="_Path_" fill="#CB2026" fill-rule="nonzero" cx="19.2331288" cy="19" r="6.33333333"></circle>
                        </g>
                        <g id="Target-Copy-76" transform="translate(235.000000, 308.000000)">
                            <path d="M38,19 C38,29.4934102 29.4934102,38 19,38 C8.50658975,38 1.27235083e-15,29.4934102 0,19 C-1.23886791e-15,8.50658975 8.50658975,1.94200916e-15 19,0 C24.0391133,-8.03589999e-16 28.8718377,2.00177997 32.4350288,5.56497116 C35.99822,9.12816235 38,13.9608867 38,19 Z M19,6.33333333 C12.0043932,6.33333333 6.33333333,12.0043932 6.33333333,19 C6.33333333,25.9956068 12.0043932,31.6666667 19,31.6666667 C25.9956068,31.6666667 31.6666667,25.9956068 31.6666667,19 C31.6666667,12.0043932 25.9956068,6.33333333 19,6.33333333 Z" id="_Compound_Path_" fill="#CB2026" fill-rule="nonzero"></path>
                            <circle id="_Path_" fill="#CB2026" fill-rule="nonzero" cx="19.2331288" cy="19" r="6.33333333"></circle>
                        </g>
                        <g id="Target-Copy-12" transform="translate(741.000000, 0.000000)">
                            <path d="M38,19 C38,29.4934102 29.4934102,38 19,38 C8.50658975,38 1.27235083e-15,29.4934102 0,19 C-1.23886791e-15,8.50658975 8.50658975,1.94200916e-15 19,0 C24.0391133,-8.03589999e-16 28.8718377,2.00177997 32.4350288,5.56497116 C35.99822,9.12816235 38,13.9608867 38,19 Z M19,6.33333333 C12.0043932,6.33333333 6.33333333,12.0043932 6.33333333,19 C6.33333333,25.9956068 12.0043932,31.6666667 19,31.6666667 C25.9956068,31.6666667 31.6666667,25.9956068 31.6666667,19 C31.6666667,12.0043932 25.9956068,6.33333333 19,6.33333333 Z" id="_Compound_Path_" fill="#CB2026" fill-rule="nonzero"></path>
                            <circle id="_Path_" fill="#CB2026" fill-rule="nonzero" cx="19.2331288" cy="19" r="6.33333333"></circle>
                        </g>
                        <g id="Target-Copy-50" transform="translate(741.000000, 123.000000)">
                            <path d="M38,19 C38,29.4934102 29.4934102,38 19,38 C8.50658975,38 1.27235083e-15,29.4934102 0,19 C-1.23886791e-15,8.50658975 8.50658975,1.94200916e-15 19,0 C24.0391133,-8.03589999e-16 28.8718377,2.00177997 32.4350288,5.56497116 C35.99822,9.12816235 38,13.9608867 38,19 Z M19,6.33333333 C12.0043932,6.33333333 6.33333333,12.0043932 6.33333333,19 C6.33333333,25.9956068 12.0043932,31.6666667 19,31.6666667 C25.9956068,31.6666667 31.6666667,25.9956068 31.6666667,19 C31.6666667,12.0043932 25.9956068,6.33333333 19,6.33333333 Z" id="_Compound_Path_" fill="#CB2026" fill-rule="nonzero"></path>
                            <circle id="_Path_" fill="#CB2026" fill-rule="nonzero" cx="19.2331288" cy="19" r="6.33333333"></circle>
                        </g>
                        <g id="Target-Copy-77" transform="translate(741.000000, 246.000000)">
                            <path d="M38,19 C38,29.4934102 29.4934102,38 19,38 C8.50658975,38 1.27235083e-15,29.4934102 0,19 C-1.23886791e-15,8.50658975 8.50658975,1.94200916e-15 19,0 C24.0391133,-8.03589999e-16 28.8718377,2.00177997 32.4350288,5.56497116 C35.99822,9.12816235 38,13.9608867 38,19 Z M19,6.33333333 C12.0043932,6.33333333 6.33333333,12.0043932 6.33333333,19 C6.33333333,25.9956068 12.0043932,31.6666667 19,31.6666667 C25.9956068,31.6666667 31.6666667,25.9956068 31.6666667,19 C31.6666667,12.0043932 25.9956068,6.33333333 19,6.33333333 Z" id="_Compound_Path_" fill="#CB2026" fill-rule="nonzero"></path>
                            <circle id="_Path_" fill="#CB2026" fill-rule="nonzero" cx="19.2331288" cy="19" r="6.33333333"></circle>
                        </g>
                        <g id="Target-Copy-104" transform="translate(741.000000, 369.000000)">
                            <path d="M38,19 C38,29.4934102 29.4934102,38 19,38 C8.50658975,38 1.27235083e-15,29.4934102 0,19 C-1.23886791e-15,8.50658975 8.50658975,1.94200916e-15 19,0 C24.0391133,-8.03589999e-16 28.8718377,2.00177997 32.4350288,5.56497116 C35.99822,9.12816235 38,13.9608867 38,19 Z M19,6.33333333 C12.0043932,6.33333333 6.33333333,12.0043932 6.33333333,19 C6.33333333,25.9956068 12.0043932,31.6666667 19,31.6666667 C25.9956068,31.6666667 31.6666667,25.9956068 31.6666667,19 C31.6666667,12.0043932 25.9956068,6.33333333 19,6.33333333 Z" id="_Compound_Path_" fill="#CB2026" fill-rule="nonzero"></path>
                            <circle id="_Path_" fill="#CB2026" fill-rule="nonzero" cx="19.2331288" cy="19" r="6.33333333"></circle>
                        </g>
                        <g id="Target-Copy-25" transform="translate(704.000000, 62.000000)">
                            <path d="M38,19 C38,29.4934102 29.4934102,38 19,38 C8.50658975,38 1.27235083e-15,29.4934102 0,19 C-1.23886791e-15,8.50658975 8.50658975,1.94200916e-15 19,0 C24.0391133,-8.03589999e-16 28.8718377,2.00177997 32.4350288,5.56497116 C35.99822,9.12816235 38,13.9608867 38,19 Z M19,6.33333333 C12.0043932,6.33333333 6.33333333,12.0043932 6.33333333,19 C6.33333333,25.9956068 12.0043932,31.6666667 19,31.6666667 C25.9956068,31.6666667 31.6666667,25.9956068 31.6666667,19 C31.6666667,12.0043932 25.9956068,6.33333333 19,6.33333333 Z" id="_Compound_Path_" fill="#CB2026" fill-rule="nonzero"></path>
                            <circle id="_Path_" fill="#CB2026" fill-rule="nonzero" cx="19.2331288" cy="19" r="6.33333333"></circle>
                        </g>
                        <g id="Target-Copy-51" transform="translate(704.000000, 185.000000)">
                            <path d="M38,19 C38,29.4934102 29.4934102,38 19,38 C8.50658975,38 1.27235083e-15,29.4934102 0,19 C-1.23886791e-15,8.50658975 8.50658975,1.94200916e-15 19,0 C24.0391133,-8.03589999e-16 28.8718377,2.00177997 32.4350288,5.56497116 C35.99822,9.12816235 38,13.9608867 38,19 Z M19,6.33333333 C12.0043932,6.33333333 6.33333333,12.0043932 6.33333333,19 C6.33333333,25.9956068 12.0043932,31.6666667 19,31.6666667 C25.9956068,31.6666667 31.6666667,25.9956068 31.6666667,19 C31.6666667,12.0043932 25.9956068,6.33333333 19,6.33333333 Z" id="_Compound_Path_" fill="#CB2026" fill-rule="nonzero"></path>
                            <circle id="_Path_" fill="#CB2026" fill-rule="nonzero" cx="19.2331288" cy="19" r="6.33333333"></circle>
                        </g>
                        <g id="Target-Copy-78" transform="translate(704.000000, 308.000000)">
                            <path d="M38,19 C38,29.4934102 29.4934102,38 19,38 C8.50658975,38 1.27235083e-15,29.4934102 0,19 C-1.23886791e-15,8.50658975 8.50658975,1.94200916e-15 19,0 C24.0391133,-8.03589999e-16 28.8718377,2.00177997 32.4350288,5.56497116 C35.99822,9.12816235 38,13.9608867 38,19 Z M19,6.33333333 C12.0043932,6.33333333 6.33333333,12.0043932 6.33333333,19 C6.33333333,25.9956068 12.0043932,31.6666667 19,31.6666667 C25.9956068,31.6666667 31.6666667,25.9956068 31.6666667,19 C31.6666667,12.0043932 25.9956068,6.33333333 19,6.33333333 Z" id="_Compound_Path_" fill="#CB2026" fill-rule="nonzero"></path>
                            <circle id="_Path_" fill="#CB2026" fill-rule="nonzero" cx="19.2331288" cy="19" r="6.33333333"></circle>
                        </g>
                        <g id="Target-Copy-7" transform="translate(585.000000, 0.000000)">
                            <path d="M38,19 C38,29.4934102 29.4934102,38 19,38 C8.50658975,38 1.27235083e-15,29.4934102 0,19 C-1.23886791e-15,8.50658975 8.50658975,1.94200916e-15 19,0 C24.0391133,-8.03589999e-16 28.8718377,2.00177997 32.4350288,5.56497116 C35.99822,9.12816235 38,13.9608867 38,19 Z M19,6.33333333 C12.0043932,6.33333333 6.33333333,12.0043932 6.33333333,19 C6.33333333,25.9956068 12.0043932,31.6666667 19,31.6666667 C25.9956068,31.6666667 31.6666667,25.9956068 31.6666667,19 C31.6666667,12.0043932 25.9956068,6.33333333 19,6.33333333 Z" id="_Compound_Path_" fill="#CB2026" fill-rule="nonzero"></path>
                            <circle id="_Path_" fill="#CB2026" fill-rule="nonzero" cx="19.2331288" cy="19" r="6.33333333"></circle>
                        </g>
                        <g id="Target-Copy-52" transform="translate(585.000000, 123.000000)">
                            <path d="M38,19 C38,29.4934102 29.4934102,38 19,38 C8.50658975,38 1.27235083e-15,29.4934102 0,19 C-1.23886791e-15,8.50658975 8.50658975,1.94200916e-15 19,0 C24.0391133,-8.03589999e-16 28.8718377,2.00177997 32.4350288,5.56497116 C35.99822,9.12816235 38,13.9608867 38,19 Z M19,6.33333333 C12.0043932,6.33333333 6.33333333,12.0043932 6.33333333,19 C6.33333333,25.9956068 12.0043932,31.6666667 19,31.6666667 C25.9956068,31.6666667 31.6666667,25.9956068 31.6666667,19 C31.6666667,12.0043932 25.9956068,6.33333333 19,6.33333333 Z" id="_Compound_Path_" fill="#CB2026" fill-rule="nonzero"></path>
                            <circle id="_Path_" fill="#CB2026" fill-rule="nonzero" cx="19.2331288" cy="19" r="6.33333333"></circle>
                        </g>
                        <g id="Target-Copy-79" transform="translate(585.000000, 246.000000)">
                            <path d="M38,19 C38,29.4934102 29.4934102,38 19,38 C8.50658975,38 1.27235083e-15,29.4934102 0,19 C-1.23886791e-15,8.50658975 8.50658975,1.94200916e-15 19,0 C24.0391133,-8.03589999e-16 28.8718377,2.00177997 32.4350288,5.56497116 C35.99822,9.12816235 38,13.9608867 38,19 Z M19,6.33333333 C12.0043932,6.33333333 6.33333333,12.0043932 6.33333333,19 C6.33333333,25.9956068 12.0043932,31.6666667 19,31.6666667 C25.9956068,31.6666667 31.6666667,25.9956068 31.6666667,19 C31.6666667,12.0043932 25.9956068,6.33333333 19,6.33333333 Z" id="_Compound_Path_" fill="#CB2026" fill-rule="nonzero"></path>
                            <circle id="_Path_" fill="#CB2026" fill-rule="nonzero" cx="19.2331288" cy="19" r="6.33333333"></circle>
                        </g>
                        <g id="Target-Copy-106" transform="translate(585.000000, 369.000000)">
                            <path d="M38,19 C38,29.4934102 29.4934102,38 19,38 C8.50658975,38 1.27235083e-15,29.4934102 0,19 C-1.23886791e-15,8.50658975 8.50658975,1.94200916e-15 19,0 C24.0391133,-8.03589999e-16 28.8718377,2.00177997 32.4350288,5.56497116 C35.99822,9.12816235 38,13.9608867 38,19 Z M19,6.33333333 C12.0043932,6.33333333 6.33333333,12.0043932 6.33333333,19 C6.33333333,25.9956068 12.0043932,31.6666667 19,31.6666667 C25.9956068,31.6666667 31.6666667,25.9956068 31.6666667,19 C31.6666667,12.0043932 25.9956068,6.33333333 19,6.33333333 Z" id="_Compound_Path_" fill="#CB2026" fill-rule="nonzero"></path>
                            <circle id="_Path_" fill="#CB2026" fill-rule="nonzero" cx="19.2331288" cy="19" r="6.33333333"></circle>
                        </g>
                        <g id="Target-Copy-26" transform="translate(548.000000, 62.000000)">
                            <path d="M38,19 C38,29.4934102 29.4934102,38 19,38 C8.50658975,38 1.27235083e-15,29.4934102 0,19 C-1.23886791e-15,8.50658975 8.50658975,1.94200916e-15 19,0 C24.0391133,-8.03589999e-16 28.8718377,2.00177997 32.4350288,5.56497116 C35.99822,9.12816235 38,13.9608867 38,19 Z M19,6.33333333 C12.0043932,6.33333333 6.33333333,12.0043932 6.33333333,19 C6.33333333,25.9956068 12.0043932,31.6666667 19,31.6666667 C25.9956068,31.6666667 31.6666667,25.9956068 31.6666667,19 C31.6666667,12.0043932 25.9956068,6.33333333 19,6.33333333 Z" id="_Compound_Path_" fill="#CB2026" fill-rule="nonzero"></path>
                            <circle id="_Path_" fill="#CB2026" fill-rule="nonzero" cx="19.2331288" cy="19" r="6.33333333"></circle>
                        </g>
                        <g id="Target-Copy-53" transform="translate(548.000000, 185.000000)">
                            <path d="M38,19 C38,29.4934102 29.4934102,38 19,38 C8.50658975,38 1.27235083e-15,29.4934102 0,19 C-1.23886791e-15,8.50658975 8.50658975,1.94200916e-15 19,0 C24.0391133,-8.03589999e-16 28.8718377,2.00177997 32.4350288,5.56497116 C35.99822,9.12816235 38,13.9608867 38,19 Z M19,6.33333333 C12.0043932,6.33333333 6.33333333,12.0043932 6.33333333,19 C6.33333333,25.9956068 12.0043932,31.6666667 19,31.6666667 C25.9956068,31.6666667 31.6666667,25.9956068 31.6666667,19 C31.6666667,12.0043932 25.9956068,6.33333333 19,6.33333333 Z" id="_Compound_Path_" fill="#CB2026" fill-rule="nonzero"></path>
                            <circle id="_Path_" fill="#CB2026" fill-rule="nonzero" cx="19.2331288" cy="19" r="6.33333333"></circle>
                        </g>
                        <g id="Target-Copy-80" transform="translate(548.000000, 308.000000)">
                            <path d="M38,19 C38,29.4934102 29.4934102,38 19,38 C8.50658975,38 1.27235083e-15,29.4934102 0,19 C-1.23886791e-15,8.50658975 8.50658975,1.94200916e-15 19,0 C24.0391133,-8.03589999e-16 28.8718377,2.00177997 32.4350288,5.56497116 C35.99822,9.12816235 38,13.9608867 38,19 Z M19,6.33333333 C12.0043932,6.33333333 6.33333333,12.0043932 6.33333333,19 C6.33333333,25.9956068 12.0043932,31.6666667 19,31.6666667 C25.9956068,31.6666667 31.6666667,25.9956068 31.6666667,19 C31.6666667,12.0043932 25.9956068,6.33333333 19,6.33333333 Z" id="_Compound_Path_" fill="#CB2026" fill-rule="nonzero"></path>
                            <circle id="_Path_" fill="#CB2026" fill-rule="nonzero" cx="19.2331288" cy="19" r="6.33333333"></circle>
                        </g>
                        <g id="Target-Copy-13" transform="translate(1055.000000, 0.000000)">
                            <path d="M38,19 C38,29.4934102 29.4934102,38 19,38 C8.50658975,38 1.27235083e-15,29.4934102 0,19 C-1.23886791e-15,8.50658975 8.50658975,1.94200916e-15 19,0 C24.0391133,-8.03589999e-16 28.8718377,2.00177997 32.4350288,5.56497116 C35.99822,9.12816235 38,13.9608867 38,19 Z M19,6.33333333 C12.0043932,6.33333333 6.33333333,12.0043932 6.33333333,19 C6.33333333,25.9956068 12.0043932,31.6666667 19,31.6666667 C25.9956068,31.6666667 31.6666667,25.9956068 31.6666667,19 C31.6666667,12.0043932 25.9956068,6.33333333 19,6.33333333 Z" id="_Compound_Path_" fill="#CB2026" fill-rule="nonzero"></path>
                            <circle id="_Path_" fill="#CB2026" fill-rule="nonzero" cx="19.2331288" cy="19" r="6.33333333"></circle>
                        </g>
                        <g id="Target-Copy-27" transform="translate(1017.000000, 62.000000)">
                            <path d="M38,19 C38,29.4934102 29.4934102,38 19,38 C8.50658975,38 1.27235083e-15,29.4934102 0,19 C-1.23886791e-15,8.50658975 8.50658975,1.94200916e-15 19,0 C24.0391133,-8.03589999e-16 28.8718377,2.00177997 32.4350288,5.56497116 C35.99822,9.12816235 38,13.9608867 38,19 Z M19,6.33333333 C12.0043932,6.33333333 6.33333333,12.0043932 6.33333333,19 C6.33333333,25.9956068 12.0043932,31.6666667 19,31.6666667 C25.9956068,31.6666667 31.6666667,25.9956068 31.6666667,19 C31.6666667,12.0043932 25.9956068,6.33333333 19,6.33333333 Z" id="_Compound_Path_" fill="#CB2026" fill-rule="nonzero"></path>
                            <circle id="_Path_" fill="#CB2026" fill-rule="nonzero" cx="19.2331288" cy="19" r="6.33333333"></circle>
                        </g>
                        <g id="Target-Copy-54" transform="translate(1017.000000, 185.000000)">
                            <path d="M38,19 C38,29.4934102 29.4934102,38 19,38 C8.50658975,38 1.27235083e-15,29.4934102 0,19 C-1.23886791e-15,8.50658975 8.50658975,1.94200916e-15 19,0 C24.0391133,-8.03589999e-16 28.8718377,2.00177997 32.4350288,5.56497116 C35.99822,9.12816235 38,13.9608867 38,19 Z M19,6.33333333 C12.0043932,6.33333333 6.33333333,12.0043932 6.33333333,19 C6.33333333,25.9956068 12.0043932,31.6666667 19,31.6666667 C25.9956068,31.6666667 31.6666667,25.9956068 31.6666667,19 C31.6666667,12.0043932 25.9956068,6.33333333 19,6.33333333 Z" id="_Compound_Path_" fill="#CB2026" fill-rule="nonzero"></path>
                            <circle id="_Path_" fill="#CB2026" fill-rule="nonzero" cx="19.2331288" cy="19" r="6.33333333"></circle>
                        </g>
                        <g id="Target-Copy-81" transform="translate(1017.000000, 308.000000)">
                            <path d="M38,19 C38,29.4934102 29.4934102,38 19,38 C8.50658975,38 1.27235083e-15,29.4934102 0,19 C-1.23886791e-15,8.50658975 8.50658975,1.94200916e-15 19,0 C24.0391133,-8.03589999e-16 28.8718377,2.00177997 32.4350288,5.56497116 C35.99822,9.12816235 38,13.9608867 38,19 Z M19,6.33333333 C12.0043932,6.33333333 6.33333333,12.0043932 6.33333333,19 C6.33333333,25.9956068 12.0043932,31.6666667 19,31.6666667 C25.9956068,31.6666667 31.6666667,25.9956068 31.6666667,19 C31.6666667,12.0043932 25.9956068,6.33333333 19,6.33333333 Z" id="_Compound_Path_" fill="#CB2026" fill-rule="nonzero"></path>
                            <circle id="_Path_" fill="#CB2026" fill-rule="nonzero" cx="19.2331288" cy="19" r="6.33333333"></circle>
                        </g>
                    </g>
                </g>
            </g>
        </g>
    </g>
</svg>